# Blender v2.79 (sub 0) OBJ File: ''
# www.blender.org
mtllib star.mtl
o star
v -0.550000 -0.412069 0.050000
v -0.550000 -0.512069 -0.050000
v -0.550000 -0.512069 0.050000
v -0.550000 -0.412069 -0.050000
v -0.550000 0.187931 0.050000
v -0.550000 0.087931 -0.050000
v -0.550000 0.087931 0.050000
v -0.550000 0.187931 -0.050000
v -0.450000 -0.312069 0.050000
v -0.450000 -0.412069 -0.050000
v -0.450000 -0.412069 0.050000
v -0.450000 -0.312069 -0.050000
v -0.450000 0.087931 0.050000
v -0.450000 -0.012069 -0.050000
v -0.450000 -0.012069 0.050000
v -0.450000 0.087931 -0.050000
v -0.350000 -0.212069 0.050000
v -0.350000 -0.312069 -0.050000
v -0.350000 -0.312069 0.050000
v -0.350000 -0.212069 -0.050000
v -0.350000 -0.012069 0.050000
v -0.350000 -0.112069 -0.050000
v -0.350000 -0.112069 0.050000
v -0.350000 -0.012069 -0.050000
v -0.250000 -0.112069 0.050000
v -0.250000 -0.212069 -0.050000
v -0.250000 -0.212069 0.050000
v -0.250000 -0.112069 -0.050000
v -0.250000 0.287931 0.050000
v -0.250000 0.187931 -0.050000
v -0.250000 0.187931 0.050000
v -0.250000 0.287931 -0.050000
v -0.150000 0.487931 0.050000
v -0.150000 0.287931 -0.050000
v -0.150000 0.287931 0.050000
v -0.150000 0.487931 -0.050000
v -0.050000 0.587931 0.050000
v -0.050000 0.487931 -0.050000
v -0.050000 0.487931 0.050000
v -0.050000 0.587931 -0.050000
v 0.050000 -0.212069 0.050000
v 0.050000 -0.312069 -0.050000
v 0.050000 -0.312069 0.050000
v 0.050000 -0.212069 -0.050000
v 0.150000 -0.312069 0.050000
v 0.150000 -0.412069 -0.050000
v 0.150000 -0.412069 0.050000
v 0.150000 -0.312069 -0.050000
v 0.450000 -0.412069 0.050000
v 0.450000 -0.512069 -0.050000
v 0.450000 -0.512069 0.050000
v 0.450000 -0.412069 -0.050000
v -0.450000 -0.512069 0.050000
v -0.450000 -0.512069 -0.050000
v -0.450000 -0.412069 0.050000
v -0.450000 -0.412069 -0.050000
v -0.150000 -0.412069 0.050000
v -0.150000 -0.412069 -0.050000
v -0.150000 -0.312069 0.050000
v -0.150000 -0.312069 -0.050000
v -0.050000 -0.312069 0.050000
v -0.050000 -0.312069 -0.050000
v -0.050000 -0.212069 0.050000
v -0.050000 -0.212069 -0.050000
v 0.050000 0.487931 0.050000
v 0.050000 0.487931 -0.050000
v 0.050000 0.587931 0.050000
v 0.050000 0.587931 -0.050000
v 0.150000 0.287931 0.050000
v 0.150000 0.287931 -0.050000
v 0.150000 0.487931 0.050000
v 0.150000 0.487931 -0.050000
v 0.250000 -0.212069 0.050000
v 0.250000 -0.212069 -0.050000
v 0.250000 -0.112069 0.050000
v 0.250000 -0.112069 -0.050000
v 0.250000 0.187931 0.050000
v 0.250000 0.187931 -0.050000
v 0.250000 0.287931 0.050000
v 0.250000 0.287931 -0.050000
v 0.350000 -0.312069 0.050000
v 0.350000 -0.312069 -0.050000
v 0.350000 -0.212069 0.050000
v 0.350000 -0.212069 -0.050000
v 0.350000 -0.112069 0.050000
v 0.350000 -0.112069 -0.050000
v 0.350000 -0.012069 0.050000
v 0.350000 -0.012069 -0.050000
v 0.450000 -0.412069 0.050000
v 0.450000 -0.412069 -0.050000
v 0.450000 -0.312069 0.050000
v 0.450000 -0.312069 -0.050000
v 0.450000 -0.012069 0.050000
v 0.450000 -0.012069 -0.050000
v 0.450000 0.087931 0.050000
v 0.450000 0.087931 -0.050000
v 0.550000 -0.512069 0.050000
v 0.550000 -0.512069 -0.050000
v 0.550000 -0.412069 0.050000
v 0.550000 -0.412069 -0.050000
v 0.550000 0.087931 0.050000
v 0.550000 0.087931 -0.050000
v 0.550000 0.187931 0.050000
v 0.550000 0.187931 -0.050000
v -0.450000 -0.512069 0.050000
v -0.550000 -0.412069 0.050000
v -0.550000 -0.512069 0.050000
v -0.450000 -0.412069 0.050000
v -0.450000 0.087931 0.050000
v -0.550000 0.187931 0.050000
v -0.550000 0.087931 0.050000
v -0.350000 -0.312069 0.050000
v -0.450000 -0.312069 0.050000
v -0.350000 -0.012069 0.050000
v -0.450000 -0.012069 0.050000
v -0.250000 -0.212069 0.050000
v -0.350000 -0.212069 0.050000
v -0.250000 -0.112069 0.050000
v -0.350000 -0.112069 0.050000
v -0.250000 0.187931 0.050000
v -0.150000 -0.412069 0.050000
v -0.250000 0.287931 0.050000
v -0.150000 -0.312069 0.050000
v -0.150000 0.287931 0.050000
v -0.050000 -0.312069 0.050000
v -0.150000 0.487931 0.050000
v -0.050000 -0.212069 0.050000
v -0.050000 0.487931 0.050000
v 0.050000 -0.212069 0.050000
v -0.050000 0.587931 0.050000
v 0.050000 0.487931 0.050000
v 0.050000 0.587931 0.050000
v 0.150000 -0.312069 0.050000
v 0.050000 -0.312069 0.050000
v 0.150000 0.287931 0.050000
v 0.150000 0.487931 0.050000
v 0.250000 -0.212069 0.050000
v 0.150000 -0.412069 0.050000
v 0.250000 -0.112069 0.050000
v 0.250000 0.187931 0.050000
v 0.250000 0.287931 0.050000
v 0.350000 -0.312069 0.050000
v 0.350000 -0.212069 0.050000
v 0.350000 -0.112069 0.050000
v 0.350000 -0.012069 0.050000
v 0.450000 -0.412069 0.050000
v 0.450000 -0.312069 0.050000
v 0.450000 -0.012069 0.050000
v 0.450000 0.087931 0.050000
v 0.550000 -0.512069 0.050000
v 0.450000 -0.512069 0.050000
v 0.550000 -0.412069 0.050000
v 0.550000 0.087931 0.050000
v 0.550000 0.187931 0.050000
v -0.550000 -0.512069 -0.050000
v -0.550000 -0.412069 -0.050000
v -0.450000 -0.512069 -0.050000
v -0.450000 -0.412069 -0.050000
v -0.550000 0.087931 -0.050000
v -0.550000 0.187931 -0.050000
v -0.450000 0.087931 -0.050000
v -0.450000 -0.312069 -0.050000
v -0.350000 -0.312069 -0.050000
v -0.450000 -0.012069 -0.050000
v -0.350000 -0.012069 -0.050000
v -0.350000 -0.212069 -0.050000
v -0.250000 -0.212069 -0.050000
v -0.350000 -0.112069 -0.050000
v -0.250000 -0.112069 -0.050000
v -0.250000 0.187931 -0.050000
v -0.150000 -0.412069 -0.050000
v -0.250000 0.287931 -0.050000
v -0.150000 -0.312069 -0.050000
v -0.150000 0.287931 -0.050000
v -0.150000 0.487931 -0.050000
v -0.050000 -0.312069 -0.050000
v -0.050000 -0.212069 -0.050000
v -0.050000 0.487931 -0.050000
v -0.050000 0.587931 -0.050000
v 0.050000 -0.212069 -0.050000
v 0.050000 0.487931 -0.050000
v 0.050000 0.587931 -0.050000
v 0.050000 -0.312069 -0.050000
v 0.150000 -0.312069 -0.050000
v 0.150000 0.287931 -0.050000
v 0.150000 0.487931 -0.050000
v 0.150000 -0.412069 -0.050000
v 0.250000 -0.212069 -0.050000
v 0.250000 -0.112069 -0.050000
v 0.250000 0.187931 -0.050000
v 0.250000 0.287931 -0.050000
v 0.350000 -0.312069 -0.050000
v 0.350000 -0.212069 -0.050000
v 0.350000 -0.112069 -0.050000
v 0.350000 -0.012069 -0.050000
v 0.450000 -0.412069 -0.050000
v 0.450000 -0.312069 -0.050000
v 0.450000 -0.012069 -0.050000
v 0.450000 0.087931 -0.050000
v 0.450000 -0.512069 -0.050000
v 0.550000 -0.512069 -0.050000
v 0.550000 -0.412069 -0.050000
v 0.550000 0.087931 -0.050000
v 0.550000 0.187931 -0.050000
v -0.550000 -0.512069 -0.050000
v -0.450000 -0.512069 0.050000
v -0.550000 -0.512069 0.050000
v -0.450000 -0.512069 -0.050000
v 0.450000 -0.512069 -0.050000
v 0.550000 -0.512069 0.050000
v 0.450000 -0.512069 0.050000
v 0.550000 -0.512069 -0.050000
v -0.450000 -0.412069 -0.050000
v -0.150000 -0.412069 0.050000
v -0.450000 -0.412069 0.050000
v -0.150000 -0.412069 -0.050000
v 0.150000 -0.412069 -0.050000
v 0.450000 -0.412069 0.050000
v 0.150000 -0.412069 0.050000
v 0.450000 -0.412069 -0.050000
v -0.150000 -0.312069 -0.050000
v -0.050000 -0.312069 0.050000
v -0.150000 -0.312069 0.050000
v -0.050000 -0.312069 -0.050000
v 0.050000 -0.312069 -0.050000
v 0.150000 -0.312069 0.050000
v 0.050000 -0.312069 0.050000
v 0.150000 -0.312069 -0.050000
v -0.050000 -0.212069 -0.050000
v 0.050000 -0.212069 0.050000
v -0.050000 -0.212069 0.050000
v 0.050000 -0.212069 -0.050000
v -0.350000 -0.112069 -0.050000
v -0.250000 -0.112069 0.050000
v -0.350000 -0.112069 0.050000
v -0.250000 -0.112069 -0.050000
v 0.250000 -0.112069 -0.050000
v 0.350000 -0.112069 0.050000
v 0.250000 -0.112069 0.050000
v 0.350000 -0.112069 -0.050000
v -0.450000 -0.012069 -0.050000
v -0.350000 -0.012069 0.050000
v -0.450000 -0.012069 0.050000
v -0.350000 -0.012069 -0.050000
v 0.350000 -0.012069 -0.050000
v 0.450000 -0.012069 0.050000
v 0.350000 -0.012069 0.050000
v 0.450000 -0.012069 -0.050000
v -0.550000 0.087931 -0.050000
v -0.450000 0.087931 0.050000
v -0.550000 0.087931 0.050000
v -0.450000 0.087931 -0.050000
v 0.450000 0.087931 -0.050000
v 0.550000 0.087931 0.050000
v 0.450000 0.087931 0.050000
v 0.550000 0.087931 -0.050000
v -0.550000 -0.412069 0.050000
v -0.450000 -0.412069 0.050000
v -0.550000 -0.412069 -0.050000
v -0.450000 -0.412069 -0.050000
v 0.450000 -0.412069 0.050000
v 0.550000 -0.412069 0.050000
v 0.450000 -0.412069 -0.050000
v 0.550000 -0.412069 -0.050000
v -0.450000 -0.312069 0.050000
v -0.350000 -0.312069 0.050000
v -0.450000 -0.312069 -0.050000
v -0.350000 -0.312069 -0.050000
v 0.350000 -0.312069 0.050000
v 0.450000 -0.312069 0.050000
v 0.350000 -0.312069 -0.050000
v 0.450000 -0.312069 -0.050000
v -0.350000 -0.212069 0.050000
v -0.250000 -0.212069 0.050000
v -0.350000 -0.212069 -0.050000
v -0.250000 -0.212069 -0.050000
v 0.250000 -0.212069 0.050000
v 0.350000 -0.212069 0.050000
v 0.250000 -0.212069 -0.050000
v 0.350000 -0.212069 -0.050000
v -0.550000 0.187931 0.050000
v -0.250000 0.187931 0.050000
v -0.550000 0.187931 -0.050000
v -0.250000 0.187931 -0.050000
v 0.250000 0.187931 0.050000
v 0.550000 0.187931 0.050000
v 0.250000 0.187931 -0.050000
v 0.550000 0.187931 -0.050000
v -0.250000 0.287931 0.050000
v -0.150000 0.287931 0.050000
v -0.250000 0.287931 -0.050000
v -0.150000 0.287931 -0.050000
v 0.150000 0.287931 0.050000
v 0.250000 0.287931 0.050000
v 0.150000 0.287931 -0.050000
v 0.250000 0.287931 -0.050000
v -0.150000 0.487931 0.050000
v -0.050000 0.487931 0.050000
v -0.150000 0.487931 -0.050000
v -0.050000 0.487931 -0.050000
v 0.050000 0.487931 0.050000
v 0.150000 0.487931 0.050000
v 0.050000 0.487931 -0.050000
v 0.150000 0.487931 -0.050000
v -0.050000 0.587931 0.050000
v 0.050000 0.587931 0.050000
v -0.050000 0.587931 -0.050000
v 0.050000 0.587931 -0.050000
vt 0.001953 0.500000
vt 0.001953 0.500000
vt 0.001953 0.500000
vt 0.001953 0.500000
vt 0.001953 0.500000
vt 0.001953 0.500000
vt 0.001953 0.500000
vt 0.001953 0.500000
vt 0.001953 0.500000
vt 0.001953 0.500000
vt 0.001953 0.500000
vt 0.001953 0.500000
vt 0.001953 0.500000
vt 0.001953 0.500000
vt 0.001953 0.500000
vt 0.001953 0.500000
vt 0.001953 0.500000
vt 0.001953 0.500000
vt 0.001953 0.500000
vt 0.001953 0.500000
vt 0.001953 0.500000
vt 0.001953 0.500000
vt 0.001953 0.500000
vt 0.001953 0.500000
vt 0.001953 0.500000
vt 0.001953 0.500000
vt 0.001953 0.500000
vt 0.001953 0.500000
vt 0.001953 0.500000
vt 0.001953 0.500000
vt 0.001953 0.500000
vt 0.001953 0.500000
vt 0.001953 0.500000
vt 0.001953 0.500000
vt 0.001953 0.500000
vt 0.001953 0.500000
vt 0.001953 0.500000
vt 0.001953 0.500000
vt 0.001953 0.500000
vt 0.001953 0.500000
vt 0.001953 0.500000
vt 0.001953 0.500000
vt 0.001953 0.500000
vt 0.001953 0.500000
vt 0.001953 0.500000
vt 0.001953 0.500000
vt 0.001953 0.500000
vt 0.001953 0.500000
vt 0.001953 0.500000
vt 0.001953 0.500000
vt 0.001953 0.500000
vt 0.001953 0.500000
vt 0.001953 0.500000
vt 0.001953 0.500000
vt 0.001953 0.500000
vt 0.001953 0.500000
vt 0.001953 0.500000
vt 0.001953 0.500000
vt 0.001953 0.500000
vt 0.001953 0.500000
vt 0.001953 0.500000
vt 0.001953 0.500000
vt 0.001953 0.500000
vt 0.001953 0.500000
vt 0.001953 0.500000
vt 0.001953 0.500000
vt 0.001953 0.500000
vt 0.001953 0.500000
vt 0.001953 0.500000
vt 0.001953 0.500000
vt 0.001953 0.500000
vt 0.001953 0.500000
vt 0.001953 0.500000
vt 0.001953 0.500000
vt 0.001953 0.500000
vt 0.001953 0.500000
vt 0.001953 0.500000
vt 0.001953 0.500000
vt 0.001953 0.500000
vt 0.001953 0.500000
vt 0.001953 0.500000
vt 0.001953 0.500000
vt 0.001953 0.500000
vt 0.001953 0.500000
vt 0.001953 0.500000
vt 0.001953 0.500000
vt 0.001953 0.500000
vt 0.001953 0.500000
vt 0.001953 0.500000
vt 0.001953 0.500000
vt 0.001953 0.500000
vt 0.001953 0.500000
vt 0.001953 0.500000
vt 0.001953 0.500000
vt 0.001953 0.500000
vt 0.001953 0.500000
vt 0.001953 0.500000
vt 0.001953 0.500000
vt 0.001953 0.500000
vt 0.001953 0.500000
vt 0.001953 0.500000
vt 0.001953 0.500000
vt 0.001953 0.500000
vt 0.001953 0.500000
vt 0.001953 0.500000
vt 0.001953 0.500000
vt 0.001953 0.500000
vt 0.001953 0.500000
vt 0.001953 0.500000
vt 0.001953 0.500000
vt 0.001953 0.500000
vt 0.001953 0.500000
vt 0.001953 0.500000
vt 0.001953 0.500000
vt 0.001953 0.500000
vt 0.001953 0.500000
vt 0.001953 0.500000
vt 0.001953 0.500000
vt 0.001953 0.500000
vt 0.001953 0.500000
vt 0.001953 0.500000
vt 0.001953 0.500000
vt 0.001953 0.500000
vt 0.001953 0.500000
vt 0.001953 0.500000
vt 0.001953 0.500000
vt 0.001953 0.500000
vt 0.001953 0.500000
vt 0.001953 0.500000
vt 0.001953 0.500000
vt 0.001953 0.500000
vt 0.001953 0.500000
vt 0.001953 0.500000
vt 0.001953 0.500000
vt 0.001953 0.500000
vt 0.001953 0.500000
vt 0.001953 0.500000
vt 0.001953 0.500000
vt 0.001953 0.500000
vt 0.001953 0.500000
vt 0.001953 0.500000
vt 0.001953 0.500000
vt 0.001953 0.500000
vt 0.001953 0.500000
vt 0.001953 0.500000
vt 0.001953 0.500000
vt 0.001953 0.500000
vt 0.001953 0.500000
vt 0.001953 0.500000
vt 0.001953 0.500000
vt 0.001953 0.500000
vt 0.001953 0.500000
vt 0.001953 0.500000
vt 0.001953 0.500000
vt 0.001953 0.500000
vt 0.001953 0.500000
vt 0.001953 0.500000
vt 0.001953 0.500000
vt 0.001953 0.500000
vt 0.001953 0.500000
vt 0.001953 0.500000
vt 0.001953 0.500000
vt 0.001953 0.500000
vt 0.001953 0.500000
vt 0.001953 0.500000
vt 0.001953 0.500000
vt 0.001953 0.500000
vt 0.001953 0.500000
vt 0.001953 0.500000
vt 0.001953 0.500000
vt 0.001953 0.500000
vt 0.001953 0.500000
vt 0.001953 0.500000
vt 0.001953 0.500000
vt 0.001953 0.500000
vt 0.001953 0.500000
vt 0.001953 0.500000
vt 0.001953 0.500000
vt 0.001953 0.500000
vt 0.001953 0.500000
vt 0.001953 0.500000
vt 0.001953 0.500000
vt 0.001953 0.500000
vt 0.001953 0.500000
vt 0.001953 0.500000
vt 0.001953 0.500000
vt 0.001953 0.500000
vt 0.001953 0.500000
vt 0.001953 0.500000
vt 0.001953 0.500000
vt 0.001953 0.500000
vt 0.001953 0.500000
vt 0.001953 0.500000
vt 0.001953 0.500000
vt 0.001953 0.500000
vt 0.001953 0.500000
vt 0.001953 0.500000
vt 0.001953 0.500000
vt 0.001953 0.500000
vt 0.001953 0.500000
vt 0.001953 0.500000
vt 0.001953 0.500000
vt 0.001953 0.500000
vt 0.001953 0.500000
vt 0.001953 0.500000
vt 0.001953 0.500000
vt 0.001953 0.500000
vt 0.001953 0.500000
vt 0.001953 0.500000
vt 0.001953 0.500000
vt 0.001953 0.500000
vt 0.001953 0.500000
vt 0.001953 0.500000
vt 0.001953 0.500000
vt 0.001953 0.500000
vt 0.001953 0.500000
vt 0.001953 0.500000
vt 0.001953 0.500000
vt 0.001953 0.500000
vt 0.001953 0.500000
vt 0.001953 0.500000
vt 0.001953 0.500000
vt 0.001953 0.500000
vt 0.001953 0.500000
vt 0.001953 0.500000
vt 0.001953 0.500000
vt 0.001953 0.500000
vt 0.001953 0.500000
vt 0.001953 0.500000
vt 0.001953 0.500000
vt 0.001953 0.500000
vt 0.001953 0.500000
vt 0.001953 0.500000
vt 0.001953 0.500000
vt 0.001953 0.500000
vt 0.001953 0.500000
vt 0.001953 0.500000
vt 0.001953 0.500000
vt 0.001953 0.500000
vt 0.001953 0.500000
vt 0.001953 0.500000
vt 0.001953 0.500000
vt 0.001953 0.500000
vt 0.001953 0.500000
vt 0.001953 0.500000
vt 0.001953 0.500000
vt 0.001953 0.500000
vt 0.001953 0.500000
vt 0.001953 0.500000
vt 0.001953 0.500000
vt 0.001953 0.500000
vt 0.001953 0.500000
vt 0.001953 0.500000
vt 0.001953 0.500000
vt 0.001953 0.500000
vt 0.001953 0.500000
vt 0.001953 0.500000
vt 0.001953 0.500000
vt 0.001953 0.500000
vt 0.001953 0.500000
vt 0.001953 0.500000
vt 0.001953 0.500000
vt 0.001953 0.500000
vt 0.001953 0.500000
vt 0.001953 0.500000
vt 0.001953 0.500000
vt 0.001953 0.500000
vt 0.001953 0.500000
vt 0.001953 0.500000
vt 0.001953 0.500000
vt 0.001953 0.500000
vt 0.001953 0.500000
vt 0.001953 0.500000
vt 0.001953 0.500000
vt 0.001953 0.500000
vt 0.001953 0.500000
vt 0.001953 0.500000
vt 0.001953 0.500000
vt 0.001953 0.500000
vt 0.001953 0.500000
vt 0.001953 0.500000
vt 0.001953 0.500000
vt 0.001953 0.500000
vt 0.001953 0.500000
vt 0.001953 0.500000
vt 0.001953 0.500000
vt 0.001953 0.500000
vt 0.001953 0.500000
vt 0.001953 0.500000
vt 0.001953 0.500000
vt 0.001953 0.500000
vt 0.001953 0.500000
vt 0.001953 0.500000
vt 0.001953 0.500000
vt 0.001953 0.500000
vt 0.001953 0.500000
vt 0.001953 0.500000
vt 0.001953 0.500000
vt 0.001953 0.500000
vt 0.001953 0.500000
vt 0.001953 0.500000
vt 0.001953 0.500000
vt 0.001953 0.500000
vt 0.001953 0.500000
vt 0.001953 0.500000
vt 0.001953 0.500000
vt 0.001953 0.500000
vt 0.001953 0.500000
vn -1.0000 0.0000 0.0000
vn 1.0000 0.0000 0.0000
vn 0.0000 -0.0000 1.0000
vn 0.0000 0.0000 -1.0000
vn 0.0000 -1.0000 0.0000
vn 0.0000 1.0000 0.0000
usemtl palette
s 1
f 1/1/1 2/2/1 3/3/1
f 4/4/1 2/2/1 1/1/1
f 5/5/1 6/6/1 7/7/1
f 8/8/1 6/6/1 5/5/1
f 9/9/1 10/10/1 11/11/1
f 12/12/1 10/10/1 9/9/1
f 13/13/1 14/14/1 15/15/1
f 16/16/1 14/14/1 13/13/1
f 17/17/1 18/18/1 19/19/1
f 20/20/1 18/18/1 17/17/1
f 21/21/1 22/22/1 23/23/1
f 24/24/1 22/22/1 21/21/1
f 25/25/1 26/26/1 27/27/1
f 28/28/1 26/26/1 25/25/1
f 29/29/1 30/30/1 31/31/1
f 32/32/1 30/30/1 29/29/1
f 33/33/1 34/34/1 35/35/1
f 36/36/1 34/34/1 33/33/1
f 37/37/1 38/38/1 39/39/1
f 40/40/1 38/38/1 37/37/1
f 41/41/1 42/42/1 43/43/1
f 44/44/1 42/42/1 41/41/1
f 45/45/1 46/46/1 47/47/1
f 48/48/1 46/46/1 45/45/1
f 49/49/1 50/50/1 51/51/1
f 52/52/1 50/50/1 49/49/1
f 53/53/2 54/54/2 55/55/2
f 55/55/2 54/54/2 56/56/2
f 57/57/2 58/58/2 59/59/2
f 59/59/2 58/58/2 60/60/2
f 61/61/2 62/62/2 63/63/2
f 63/63/2 62/62/2 64/64/2
f 65/65/2 66/66/2 67/67/2
f 67/67/2 66/66/2 68/68/2
f 69/69/2 70/70/2 71/71/2
f 71/71/2 70/70/2 72/72/2
f 73/73/2 74/74/2 75/75/2
f 75/75/2 74/74/2 76/76/2
f 77/77/2 78/78/2 79/79/2
f 79/79/2 78/78/2 80/80/2
f 81/81/2 82/82/2 83/83/2
f 83/83/2 82/82/2 84/84/2
f 85/85/2 86/86/2 87/87/2
f 87/87/2 86/86/2 88/88/2
f 89/89/2 90/90/2 91/91/2
f 91/91/2 90/90/2 92/92/2
f 93/93/2 94/94/2 95/95/2
f 95/95/2 94/94/2 96/96/2
f 97/97/2 98/98/2 99/99/2
f 99/99/2 98/98/2 100/100/2
f 101/101/2 102/102/2 103/103/2
f 103/103/2 102/102/2 104/104/2
f 105/105/3 106/106/3 107/107/3
f 108/108/3 106/106/3 105/105/3
f 109/109/3 110/110/3 111/111/3
f 112/112/3 113/113/3 108/108/3
f 114/114/3 109/109/3 115/115/3
f 116/116/3 117/117/3 112/112/3
f 118/118/3 114/114/3 119/119/3
f 120/120/3 110/110/3 109/109/3
f 120/120/3 109/109/3 114/114/3
f 120/120/3 114/114/3 118/118/3
f 121/121/3 116/116/3 112/112/3
f 121/121/3 122/122/3 120/120/3
f 121/121/3 120/120/3 118/118/3
f 121/121/3 118/118/3 116/116/3
f 121/121/3 112/112/3 108/108/3
f 123/123/3 122/122/3 121/121/3
f 124/124/3 122/122/3 123/123/3
f 125/125/3 126/126/3 124/124/3
f 125/125/3 124/124/3 123/123/3
f 127/127/3 126/126/3 125/125/3
f 128/128/3 126/126/3 127/127/3
f 129/129/3 130/130/3 128/128/3
f 129/129/3 128/128/3 127/127/3
f 131/131/3 130/130/3 129/129/3
f 132/132/3 130/130/3 131/131/3
f 133/133/3 129/129/3 134/134/3
f 133/133/3 131/131/3 129/129/3
f 135/135/3 131/131/3 133/133/3
f 136/136/3 131/131/3 135/135/3
f 137/137/3 133/133/3 138/138/3
f 137/137/3 135/135/3 133/133/3
f 139/139/3 135/135/3 137/137/3
f 140/140/3 135/135/3 139/139/3
f 141/141/3 135/135/3 140/140/3
f 142/142/3 137/137/3 138/138/3
f 143/143/3 137/137/3 142/142/3
f 144/144/3 140/140/3 139/139/3
f 145/145/3 140/140/3 144/144/3
f 146/146/3 142/142/3 138/138/3
f 147/147/3 142/142/3 146/146/3
f 148/148/3 140/140/3 145/145/3
f 149/149/3 140/140/3 148/148/3
f 150/150/3 146/146/3 151/151/3
f 152/152/3 146/146/3 150/150/3
f 153/153/3 140/140/3 149/149/3
f 154/154/3 140/140/3 153/153/3
f 155/155/4 156/156/4 157/157/4
f 157/157/4 156/156/4 158/158/4
f 159/159/4 160/160/4 161/161/4
f 158/158/4 162/162/4 163/163/4
f 164/164/4 161/161/4 165/165/4
f 163/163/4 166/166/4 167/167/4
f 168/168/4 165/165/4 169/169/4
f 161/161/4 160/160/4 170/170/4
f 165/165/4 161/161/4 170/170/4
f 169/169/4 165/165/4 170/170/4
f 163/163/4 167/167/4 171/171/4
f 170/170/4 172/172/4 171/171/4
f 169/169/4 170/170/4 171/171/4
f 167/167/4 169/169/4 171/171/4
f 158/158/4 163/163/4 171/171/4
f 171/171/4 172/172/4 173/173/4
f 173/173/4 172/172/4 174/174/4
f 174/174/4 175/175/4 176/176/4
f 173/173/4 174/174/4 176/176/4
f 176/176/4 175/175/4 177/177/4
f 177/177/4 175/175/4 178/178/4
f 178/178/4 179/179/4 180/180/4
f 177/177/4 178/178/4 180/180/4
f 180/180/4 179/179/4 181/181/4
f 181/181/4 179/179/4 182/182/4
f 183/183/4 180/180/4 184/184/4
f 180/180/4 181/181/4 184/184/4
f 184/184/4 181/181/4 185/185/4
f 185/185/4 181/181/4 186/186/4
f 187/187/4 184/184/4 188/188/4
f 184/184/4 185/185/4 188/188/4
f 188/188/4 185/185/4 189/189/4
f 189/189/4 185/185/4 190/190/4
f 190/190/4 185/185/4 191/191/4
f 187/187/4 188/188/4 192/192/4
f 192/192/4 188/188/4 193/193/4
f 189/189/4 190/190/4 194/194/4
f 194/194/4 190/190/4 195/195/4
f 187/187/4 192/192/4 196/196/4
f 196/196/4 192/192/4 197/197/4
f 195/195/4 190/190/4 198/198/4
f 198/198/4 190/190/4 199/199/4
f 200/200/4 196/196/4 201/201/4
f 201/201/4 196/196/4 202/202/4
f 199/199/4 190/190/4 203/203/4
f 203/203/4 190/190/4 204/204/4
f 205/205/5 206/206/5 207/207/5
f 208/208/5 206/206/5 205/205/5
f 209/209/5 210/210/5 211/211/5
f 212/212/5 210/210/5 209/209/5
f 213/213/5 214/214/5 215/215/5
f 216/216/5 214/214/5 213/213/5
f 217/217/5 218/218/5 219/219/5
f 220/220/5 218/218/5 217/217/5
f 221/221/5 222/222/5 223/223/5
f 224/224/5 222/222/5 221/221/5
f 225/225/5 226/226/5 227/227/5
f 228/228/5 226/226/5 225/225/5
f 229/229/5 230/230/5 231/231/5
f 232/232/5 230/230/5 229/229/5
f 233/233/5 234/234/5 235/235/5
f 236/236/5 234/234/5 233/233/5
f 237/237/5 238/238/5 239/239/5
f 240/240/5 238/238/5 237/237/5
f 241/241/5 242/242/5 243/243/5
f 244/244/5 242/242/5 241/241/5
f 245/245/5 246/246/5 247/247/5
f 248/248/5 246/246/5 245/245/5
f 249/249/5 250/250/5 251/251/5
f 252/252/5 250/250/5 249/249/5
f 253/253/5 254/254/5 255/255/5
f 256/256/5 254/254/5 253/253/5
f 257/257/6 258/258/6 259/259/6
f 259/259/6 258/258/6 260/260/6
f 261/261/6 262/262/6 263/263/6
f 263/263/6 262/262/6 264/264/6
f 265/265/6 266/266/6 267/267/6
f 267/267/6 266/266/6 268/268/6
f 269/269/6 270/270/6 271/271/6
f 271/271/6 270/270/6 272/272/6
f 273/273/6 274/274/6 275/275/6
f 275/275/6 274/274/6 276/276/6
f 277/277/6 278/278/6 279/279/6
f 279/279/6 278/278/6 280/280/6
f 281/281/6 282/282/6 283/283/6
f 283/283/6 282/282/6 284/284/6
f 285/285/6 286/286/6 287/287/6
f 287/287/6 286/286/6 288/288/6
f 289/289/6 290/290/6 291/291/6
f 291/291/6 290/290/6 292/292/6
f 293/293/6 294/294/6 295/295/6
f 295/295/6 294/294/6 296/296/6
f 297/297/6 298/298/6 299/299/6
f 299/299/6 298/298/6 300/300/6
f 301/301/6 302/302/6 303/303/6
f 303/303/6 302/302/6 304/304/6
f 305/305/6 306/306/6 307/307/6
f 307/307/6 306/306/6 308/308/6
