# MagicaVoxel @ Ephtracy

# group
g SmallStage-2

# material
mtllib SmallStage-2.mtl
usemtl palette

# normals
vn -1 0 0
vn 1 0 0
vn 0 0 1
vn 0 0 -1
vn 0 -1 0
vn 0 1 0

# texcoords
vt 0.251953 0.5
vt 0.283203 0.5

# verts
v -20 0 -0
v -20 0 -5
v -20 10 -0
v -20 10 -5
v -19 0 -5
v -19 0 -8
v -19 10 -5
v -19 10 -8
v -18 0 5
v -18 0 -0
v -18 0 -8
v -18 0 -10
v -18 2 5
v -18 2 -0
v -18 10 -8
v -18 10 -10
v -17 0 8
v -17 0 5
v -17 0 -10
v -17 0 -12
v -17 2 8
v -17 2 5
v -17 10 -10
v -17 10 -12
v -16 0 10
v -16 0 8
v -16 0 -12
v -16 0 -13
v -16 2 10
v -16 2 8
v -16 10 -12
v -16 10 -13
v -15 0 11
v -15 0 10
v -15 0 -13
v -15 0 -14
v -15 2 11
v -15 2 10
v -15 10 -13
v -15 10 -14
v -14 0 12
v -14 0 11
v -14 0 -14
v -14 0 -15
v -14 2 12
v -14 2 11
v -14 10 -14
v -14 10 -15
v -13 0 13
v -13 0 12
v -13 0 -15
v -13 0 -16
v -13 2 13
v -13 2 12
v -13 10 -15
v -13 10 -16
v -12 0 14
v -12 0 13
v -12 0 -16
v -12 0 -17
v -12 2 14
v -12 2 13
v -12 10 -16
v -12 10 -17
v -11 0 15
v -11 0 14
v -11 2 15
v -11 2 14
v -10 0 16
v -10 0 15
v -10 0 -17
v -10 0 -18
v -10 2 16
v -10 2 15
v -10 10 -17
v -10 10 -18
v -8 0 17
v -8 0 16
v -8 0 -18
v -8 0 -19
v -8 2 17
v -8 2 16
v -8 10 -18
v -8 10 -19
v -5 0 18
v -5 0 17
v -5 0 -19
v -5 0 -20
v -5 2 18
v -5 2 17
v -5 10 -19
v -5 10 -20
v 5 2 -17
v 5 2 -18
v 5 3 -17
v 5 3 -18
v 5 4 -17
v 5 4 -18
v 5 5 -17
v 5 5 -18
v 5 6 -17
v 5 6 -18
v 5 7 -17
v 5 7 -18
v 5 8 -17
v 5 8 -18
v 5 10 -17
v 5 10 -18
v 8 2 -16
v 8 2 -17
v 8 3 -16
v 8 3 -17
v 8 4 -16
v 8 4 -17
v 8 7 -16
v 8 7 -17
v 8 8 -16
v 8 8 -17
v 8 10 -16
v 8 10 -17
v 10 2 -15
v 10 2 -16
v 10 3 -15
v 10 3 -16
v 10 4 -15
v 10 4 -16
v 10 7 -15
v 10 7 -16
v 10 8 -15
v 10 8 -16
v 10 10 -15
v 10 10 -16
v 11 2 -14
v 11 2 -15
v 11 3 -14
v 11 3 -15
v 11 4 -14
v 11 4 -15
v 11 7 -14
v 11 7 -15
v 11 8 -14
v 11 8 -15
v 11 10 -14
v 11 10 -15
v 12 2 -13
v 12 2 -14
v 12 3 -13
v 12 3 -14
v 12 4 -13
v 12 4 -14
v 12 7 -13
v 12 7 -14
v 12 8 -13
v 12 8 -14
v 12 10 -13
v 12 10 -14
v 13 2 -12
v 13 2 -13
v 13 3 -12
v 13 3 -13
v 13 4 -12
v 13 4 -13
v 13 7 -12
v 13 7 -13
v 13 8 -12
v 13 8 -13
v 13 10 -12
v 13 10 -13
v 14 2 -11
v 14 2 -12
v 14 3 -11
v 14 3 -12
v 14 4 -11
v 14 4 -12
v 14 7 -11
v 14 7 -12
v 14 8 -11
v 14 8 -12
v 14 10 -11
v 14 10 -12
v 15 2 -10
v 15 2 -11
v 15 3 -10
v 15 3 -11
v 15 4 -10
v 15 4 -11
v 15 7 -10
v 15 7 -11
v 15 8 -10
v 15 8 -11
v 15 10 -10
v 15 10 -11
v 16 2 -8
v 16 2 -10
v 16 3 -8
v 16 3 -10
v 16 4 -8
v 16 4 -10
v 16 7 -8
v 16 7 -10
v 16 8 -8
v 16 8 -10
v 16 10 -8
v 16 10 -10
v 17 2 -5
v 17 2 -8
v 17 3 -5
v 17 3 -8
v 17 4 -5
v 17 4 -8
v 17 7 -7
v 17 7 -8
v 17 8 -7
v 17 8 -8
v 17 10 -5
v 17 10 -8
v 18 2 -0
v 18 2 -5
v 18 3 -0
v 18 3 -5
v 18 4 -0
v 18 4 -5
v 18 10 -0
v 18 10 -5
v -18 2 -0
v -18 2 -5
v -18 5 -0
v -18 5 -5
v -18 6 -0
v -18 6 -5
v -18 10 -0
v -18 10 -5
v -17 2 -5
v -17 2 -8
v -17 5 -5
v -17 5 -8
v -17 6 -5
v -17 6 -8
v -17 10 -5
v -17 10 -8
v -16 2 -8
v -16 2 -10
v -16 5 -8
v -16 5 -10
v -16 6 -8
v -16 6 -10
v -16 10 -8
v -16 10 -10
v -15 2 -10
v -15 2 -11
v -15 5 -10
v -15 5 -11
v -15 6 -10
v -15 6 -11
v -15 10 -10
v -15 10 -11
v -14 2 -11
v -14 2 -12
v -14 5 -11
v -14 5 -12
v -14 6 -11
v -14 6 -12
v -14 10 -11
v -14 10 -12
v -13 2 -12
v -13 2 -13
v -13 3 -13
v -13 4 -13
v -13 5 -12
v -13 5 -13
v -13 6 -12
v -13 6 -13
v -13 10 -12
v -13 10 -13
v -12 2 -13
v -12 2 -14
v -12 3 -13
v -12 3 -14
v -12 4 -13
v -12 4 -14
v -12 5 -13
v -12 5 -14
v -12 6 -13
v -12 6 -14
v -12 7 -14
v -12 8 -14
v -12 10 -13
v -12 10 -14
v -11 2 -14
v -11 2 -15
v -11 3 -14
v -11 3 -15
v -11 4 -14
v -11 4 -15
v -11 5 -14
v -11 5 -15
v -11 6 -14
v -11 6 -15
v -11 7 -14
v -11 7 -15
v -11 8 -14
v -11 8 -15
v -11 10 -14
v -11 10 -15
v -10 2 -15
v -10 2 -16
v -10 3 -15
v -10 3 -16
v -10 4 -15
v -10 4 -16
v -10 5 -15
v -10 5 -16
v -10 6 -15
v -10 6 -16
v -10 7 -15
v -10 7 -16
v -10 8 -15
v -10 8 -16
v -10 10 -15
v -10 10 -16
v -8 2 -16
v -8 2 -17
v -8 3 -16
v -8 3 -17
v -8 4 -16
v -8 4 -17
v -8 5 -16
v -8 5 -17
v -8 6 -16
v -8 6 -17
v -8 7 -16
v -8 7 -17
v -8 8 -16
v -8 8 -17
v -8 10 -16
v -8 10 -17
v -5 2 -17
v -5 2 -18
v -5 3 -17
v -5 3 -18
v -5 4 -17
v -5 4 -18
v -5 5 -17
v -5 5 -18
v -5 6 -17
v -5 6 -18
v -5 7 -17
v -5 7 -18
v -5 8 -17
v -5 8 -18
v -5 10 -17
v -5 10 -18
v 5 0 18
v 5 0 17
v 5 0 -19
v 5 0 -20
v 5 2 18
v 5 2 17
v 5 10 -19
v 5 10 -20
v 8 0 17
v 8 0 16
v 8 0 -18
v 8 0 -19
v 8 2 17
v 8 2 16
v 8 10 -18
v 8 10 -19
v 10 0 16
v 10 0 15
v 10 0 -17
v 10 0 -18
v 10 2 16
v 10 2 15
v 10 10 -17
v 10 10 -18
v 11 0 15
v 11 0 14
v 11 2 15
v 11 2 14
v 12 0 14
v 12 0 13
v 12 0 -16
v 12 0 -17
v 12 2 14
v 12 2 13
v 12 10 -16
v 12 10 -17
v 13 0 13
v 13 0 12
v 13 0 -15
v 13 0 -16
v 13 2 13
v 13 2 12
v 13 10 -15
v 13 10 -16
v 14 0 12
v 14 0 11
v 14 0 -14
v 14 0 -15
v 14 2 12
v 14 2 11
v 14 10 -14
v 14 10 -15
v 15 0 11
v 15 0 10
v 15 0 -13
v 15 0 -14
v 15 2 11
v 15 2 10
v 15 10 -13
v 15 10 -14
v 16 0 10
v 16 0 8
v 16 0 -12
v 16 0 -13
v 16 2 10
v 16 2 8
v 16 10 -12
v 16 10 -13
v 17 0 8
v 17 0 5
v 17 0 -10
v 17 0 -12
v 17 2 8
v 17 2 5
v 17 10 -10
v 17 10 -12
v 18 0 5
v 18 0 -0
v 18 0 -8
v 18 0 -10
v 18 2 5
v 18 2 -0
v 18 10 -8
v 18 10 -10
v 19 0 -5
v 19 0 -8
v 19 10 -5
v 19 10 -8
v 20 0 -0
v 20 0 -5
v 20 10 -0
v 20 10 -5
v -5 0 18
v -5 2 18
v 5 0 18
v 5 2 18
v -8 0 17
v -8 2 17
v -5 0 17
v -5 2 17
v 5 0 17
v 5 2 17
v 8 0 17
v 8 2 17
v -10 0 16
v -10 2 16
v -8 0 16
v -8 2 16
v 8 0 16
v 8 2 16
v 10 0 16
v 10 2 16
v -11 0 15
v -11 2 15
v -10 0 15
v -10 2 15
v 10 0 15
v 10 2 15
v 11 0 15
v 11 2 15
v -12 0 14
v -12 2 14
v -11 0 14
v -11 2 14
v 11 0 14
v 11 2 14
v 12 0 14
v 12 2 14
v -13 0 13
v -13 2 13
v -12 0 13
v -12 2 13
v 12 0 13
v 12 2 13
v 13 0 13
v 13 2 13
v -14 0 12
v -14 2 12
v -13 0 12
v -13 2 12
v 13 0 12
v 13 2 12
v 14 0 12
v 14 2 12
v -15 0 11
v -15 2 11
v -14 0 11
v -14 2 11
v 14 0 11
v 14 2 11
v 15 0 11
v 15 2 11
v -16 0 10
v -16 2 10
v -15 0 10
v -15 2 10
v 15 0 10
v 15 2 10
v 16 0 10
v 16 2 10
v -17 0 8
v -17 2 8
v -16 0 8
v -16 2 8
v 16 0 8
v 16 2 8
v 17 0 8
v 17 2 8
v -18 0 5
v -18 2 5
v -17 0 5
v -17 2 5
v 17 0 5
v 17 2 5
v 18 0 5
v 18 2 5
v -20 0 -0
v -20 10 -0
v -19 5 -0
v -19 6 -0
v -18 0 -0
v -18 2 -0
v -18 5 -0
v -18 6 -0
v -18 10 -0
v 18 0 -0
v 18 2 -0
v 18 3 -0
v 18 4 -0
v 18 10 -0
v 19 3 -0
v 19 4 -0
v 20 0 -0
v 20 10 -0
v -18 2 -5
v -18 5 -5
v -18 6 -5
v -18 10 -5
v -17 2 -5
v -17 5 -5
v -17 6 -5
v -17 10 -5
v 17 2 -5
v 17 3 -5
v 17 4 -5
v 17 10 -5
v 18 2 -5
v 18 3 -5
v 18 4 -5
v 18 10 -5
v -17 2 -8
v -17 5 -8
v -17 6 -8
v -17 10 -8
v -16 2 -8
v -16 5 -8
v -16 6 -8
v -16 10 -8
v 16 2 -8
v 16 3 -8
v 16 4 -8
v 16 7 -8
v 16 8 -8
v 16 10 -8
v 17 2 -8
v 17 3 -8
v 17 4 -8
v 17 7 -8
v 17 8 -8
v 17 10 -8
v -16 2 -10
v -16 5 -10
v -16 6 -10
v -16 10 -10
v -15 2 -10
v -15 5 -10
v -15 6 -10
v -15 10 -10
v 15 2 -10
v 15 3 -10
v 15 4 -10
v 15 7 -10
v 15 8 -10
v 15 10 -10
v 16 2 -10
v 16 3 -10
v 16 4 -10
v 16 7 -10
v 16 8 -10
v 16 10 -10
v -15 2 -11
v -15 5 -11
v -15 6 -11
v -15 10 -11
v -14 2 -11
v -14 5 -11
v -14 6 -11
v -14 10 -11
v 14 2 -11
v 14 3 -11
v 14 4 -11
v 14 7 -11
v 14 8 -11
v 14 10 -11
v 15 2 -11
v 15 3 -11
v 15 4 -11
v 15 7 -11
v 15 8 -11
v 15 10 -11
v -14 2 -12
v -14 5 -12
v -14 6 -12
v -14 10 -12
v -13 2 -12
v -13 5 -12
v -13 6 -12
v -13 10 -12
v 13 2 -12
v 13 3 -12
v 13 4 -12
v 13 7 -12
v 13 8 -12
v 13 10 -12
v 14 2 -12
v 14 3 -12
v 14 4 -12
v 14 7 -12
v 14 8 -12
v 14 10 -12
v -13 2 -13
v -13 3 -13
v -13 4 -13
v -13 5 -13
v -13 6 -13
v -13 10 -13
v -12 2 -13
v -12 3 -13
v -12 4 -13
v -12 5 -13
v -12 6 -13
v -12 10 -13
v 12 2 -13
v 12 3 -13
v 12 4 -13
v 12 7 -13
v 12 8 -13
v 12 10 -13
v 13 2 -13
v 13 3 -13
v 13 4 -13
v 13 7 -13
v 13 8 -13
v 13 10 -13
v -12 2 -14
v -12 3 -14
v -12 4 -14
v -12 5 -14
v -12 6 -14
v -12 7 -14
v -12 8 -14
v -12 10 -14
v -11 2 -14
v -11 3 -14
v -11 4 -14
v -11 5 -14
v -11 6 -14
v -11 7 -14
v -11 8 -14
v -11 10 -14
v 11 2 -14
v 11 3 -14
v 11 4 -14
v 11 7 -14
v 11 8 -14
v 11 10 -14
v 12 2 -14
v 12 3 -14
v 12 4 -14
v 12 7 -14
v 12 8 -14
v 12 10 -14
v -11 2 -15
v -11 3 -15
v -11 4 -15
v -11 5 -15
v -11 6 -15
v -11 7 -15
v -11 8 -15
v -11 10 -15
v -10 2 -15
v -10 3 -15
v -10 4 -15
v -10 5 -15
v -10 6 -15
v -10 7 -15
v -10 8 -15
v -10 10 -15
v 10 2 -15
v 10 3 -15
v 10 4 -15
v 10 7 -15
v 10 8 -15
v 10 10 -15
v 11 2 -15
v 11 3 -15
v 11 4 -15
v 11 7 -15
v 11 8 -15
v 11 10 -15
v -10 2 -16
v -10 3 -16
v -10 4 -16
v -10 5 -16
v -10 6 -16
v -10 7 -16
v -10 8 -16
v -10 10 -16
v -8 2 -16
v -8 3 -16
v -8 4 -16
v -8 5 -16
v -8 6 -16
v -8 7 -16
v -8 8 -16
v -8 10 -16
v 8 2 -16
v 8 3 -16
v 8 4 -16
v 8 7 -16
v 8 8 -16
v 8 10 -16
v 10 2 -16
v 10 3 -16
v 10 4 -16
v 10 7 -16
v 10 8 -16
v 10 10 -16
v -8 2 -17
v -8 3 -17
v -8 4 -17
v -8 5 -17
v -8 6 -17
v -8 7 -17
v -8 8 -17
v -8 10 -17
v -5 2 -17
v -5 3 -17
v -5 4 -17
v -5 5 -17
v -5 6 -17
v -5 7 -17
v -5 8 -17
v -5 10 -17
v 5 2 -17
v 5 3 -17
v 5 4 -17
v 5 5 -17
v 5 6 -17
v 5 7 -17
v 5 8 -17
v 5 10 -17
v 7 5 -17
v 7 6 -17
v 8 2 -17
v 8 3 -17
v 8 4 -17
v 8 7 -17
v 8 8 -17
v 8 10 -17
v -5 2 -18
v -5 3 -18
v -5 4 -18
v -5 5 -18
v -5 6 -18
v -5 7 -18
v -5 8 -18
v -5 10 -18
v 5 2 -18
v 5 3 -18
v 5 4 -18
v 5 5 -18
v 5 6 -18
v 5 7 -18
v 5 8 -18
v 5 10 -18
v -20 0 -5
v -20 10 -5
v -19 0 -5
v -19 10 -5
v 19 0 -5
v 19 10 -5
v 20 0 -5
v 20 10 -5
v -19 0 -8
v -19 10 -8
v -18 0 -8
v -18 10 -8
v 18 0 -8
v 18 10 -8
v 19 0 -8
v 19 10 -8
v -18 0 -10
v -18 10 -10
v -17 0 -10
v -17 10 -10
v 17 0 -10
v 17 10 -10
v 18 0 -10
v 18 10 -10
v -17 0 -12
v -17 10 -12
v -16 0 -12
v -16 10 -12
v 16 0 -12
v 16 10 -12
v 17 0 -12
v 17 10 -12
v -16 0 -13
v -16 10 -13
v -15 0 -13
v -15 10 -13
v 15 0 -13
v 15 10 -13
v 16 0 -13
v 16 10 -13
v -15 0 -14
v -15 10 -14
v -14 0 -14
v -14 10 -14
v 14 0 -14
v 14 10 -14
v 15 0 -14
v 15 10 -14
v -14 0 -15
v -14 10 -15
v -13 0 -15
v -13 10 -15
v 13 0 -15
v 13 10 -15
v 14 0 -15
v 14 10 -15
v -13 0 -16
v -13 10 -16
v -12 0 -16
v -12 10 -16
v 12 0 -16
v 12 10 -16
v 13 0 -16
v 13 10 -16
v -12 0 -17
v -12 10 -17
v -10 0 -17
v -10 10 -17
v 10 0 -17
v 10 10 -17
v 12 0 -17
v 12 10 -17
v -10 0 -18
v -10 10 -18
v -8 0 -18
v -8 10 -18
v 8 0 -18
v 8 10 -18
v 10 0 -18
v 10 10 -18
v -8 0 -19
v -8 10 -19
v -5 0 -19
v -5 10 -19
v 5 0 -19
v 5 10 -19
v 8 0 -19
v 8 10 -19
v -5 0 -20
v -5 10 -20
v 5 0 -20
v 5 10 -20
v -5 0 18
v 5 0 18
v -8 0 17
v -5 0 17
v 5 0 17
v 8 0 17
v -10 0 16
v -8 0 16
v 8 0 16
v 10 0 16
v -11 0 15
v -10 0 15
v 10 0 15
v 11 0 15
v -12 0 14
v -11 0 14
v 11 0 14
v 12 0 14
v -13 0 13
v -12 0 13
v 12 0 13
v 13 0 13
v -14 0 12
v -13 0 12
v 13 0 12
v 14 0 12
v -15 0 11
v -14 0 11
v 14 0 11
v 15 0 11
v -16 0 10
v -15 0 10
v 15 0 10
v 16 0 10
v -17 0 8
v -16 0 8
v 16 0 8
v 17 0 8
v -18 0 5
v -17 0 5
v 17 0 5
v 18 0 5
v -20 0 -0
v -18 0 -0
v 18 0 -0
v 20 0 -0
v -20 0 -5
v -19 0 -5
v 19 0 -5
v 20 0 -5
v -19 0 -8
v -18 0 -8
v 18 0 -8
v 19 0 -8
v -18 0 -10
v -17 0 -10
v 17 0 -10
v 18 0 -10
v -17 0 -12
v -16 0 -12
v 16 0 -12
v 17 0 -12
v -16 0 -13
v -15 0 -13
v 15 0 -13
v 16 0 -13
v -15 0 -14
v -14 0 -14
v 14 0 -14
v 15 0 -14
v -14 0 -15
v -13 0 -15
v 13 0 -15
v 14 0 -15
v -13 0 -16
v -12 0 -16
v 12 0 -16
v 13 0 -16
v -12 0 -17
v -10 0 -17
v 10 0 -17
v 12 0 -17
v -10 0 -18
v -8 0 -18
v 8 0 -18
v 10 0 -18
v -8 0 -19
v -5 0 -19
v 5 0 -19
v 8 0 -19
v -5 0 -20
v 5 0 -20
v -5 2 18
v 5 2 18
v -8 2 17
v -5 2 17
v 5 2 17
v 8 2 17
v -10 2 16
v -8 2 16
v 8 2 16
v 10 2 16
v -11 2 15
v -10 2 15
v 10 2 15
v 11 2 15
v -12 2 14
v -11 2 14
v 11 2 14
v 12 2 14
v -13 2 13
v -12 2 13
v 12 2 13
v 13 2 13
v -14 2 12
v -13 2 12
v 13 2 12
v 14 2 12
v -15 2 11
v -14 2 11
v 14 2 11
v 15 2 11
v -16 2 10
v -15 2 10
v 15 2 10
v 16 2 10
v -17 2 8
v -16 2 8
v 16 2 8
v 17 2 8
v -18 2 5
v -17 2 5
v 17 2 5
v 18 2 5
v -18 2 -0
v 18 2 -0
v -18 2 -5
v -17 2 -5
v 17 2 -5
v 18 2 -5
v -17 2 -8
v -16 2 -8
v 16 2 -8
v 17 2 -8
v -16 2 -10
v -15 2 -10
v 15 2 -10
v 16 2 -10
v -15 2 -11
v -14 2 -11
v 14 2 -11
v 15 2 -11
v -14 2 -12
v -13 2 -12
v 13 2 -12
v 14 2 -12
v -13 2 -13
v -12 2 -13
v 12 2 -13
v 13 2 -13
v -12 2 -14
v -11 2 -14
v 11 2 -14
v 12 2 -14
v -11 2 -15
v -10 2 -15
v 10 2 -15
v 11 2 -15
v -10 2 -16
v -8 2 -16
v 8 2 -16
v 10 2 -16
v -8 2 -17
v -5 2 -17
v 5 2 -17
v 8 2 -17
v -5 2 -18
v 5 2 -18
v -20 10 -0
v -18 10 -0
v 18 10 -0
v 20 10 -0
v -20 10 -5
v -19 10 -5
v -18 10 -5
v -17 10 -5
v 17 10 -5
v 18 10 -5
v 19 10 -5
v 20 10 -5
v -19 10 -8
v -18 10 -8
v -17 10 -8
v -16 10 -8
v 16 10 -8
v 17 10 -8
v 18 10 -8
v 19 10 -8
v -18 10 -10
v -17 10 -10
v -16 10 -10
v -15 10 -10
v 15 10 -10
v 16 10 -10
v 17 10 -10
v 18 10 -10
v -15 10 -11
v -14 10 -11
v 14 10 -11
v 15 10 -11
v -17 10 -12
v -16 10 -12
v -14 10 -12
v -13 10 -12
v 13 10 -12
v 14 10 -12
v 16 10 -12
v 17 10 -12
v -16 10 -13
v -15 10 -13
v -13 10 -13
v -12 10 -13
v 12 10 -13
v 13 10 -13
v 15 10 -13
v 16 10 -13
v -15 10 -14
v -14 10 -14
v -12 10 -14
v -11 10 -14
v 11 10 -14
v 12 10 -14
v 14 10 -14
v 15 10 -14
v -14 10 -15
v -13 10 -15
v -11 10 -15
v -10 10 -15
v 10 10 -15
v 11 10 -15
v 13 10 -15
v 14 10 -15
v -13 10 -16
v -12 10 -16
v -10 10 -16
v -8 10 -16
v 8 10 -16
v 10 10 -16
v 12 10 -16
v 13 10 -16
v -12 10 -17
v -10 10 -17
v -8 10 -17
v -5 10 -17
v 5 10 -17
v 8 10 -17
v 10 10 -17
v 12 10 -17
v -10 10 -18
v -8 10 -18
v -5 10 -18
v 5 10 -18
v 8 10 -18
v 10 10 -18
v -8 10 -19
v -5 10 -19
v 5 10 -19
v 8 10 -19
v -5 10 -20
v 5 10 -20

# faces
f 3/1/1 2/1/1 1/1/1
f 4/1/1 2/1/1 3/1/1
f 7/1/1 6/1/1 5/1/1
f 8/1/1 6/1/1 7/1/1
f 13/1/1 10/1/1 9/1/1
f 14/1/1 10/1/1 13/1/1
f 15/1/1 12/1/1 11/1/1
f 16/1/1 12/1/1 15/1/1
f 21/1/1 18/1/1 17/1/1
f 22/1/1 18/1/1 21/1/1
f 23/1/1 20/1/1 19/1/1
f 24/1/1 20/1/1 23/1/1
f 29/1/1 26/1/1 25/1/1
f 30/1/1 26/1/1 29/1/1
f 31/1/1 28/1/1 27/1/1
f 32/1/1 28/1/1 31/1/1
f 37/1/1 34/1/1 33/1/1
f 38/1/1 34/1/1 37/1/1
f 39/1/1 36/1/1 35/1/1
f 40/1/1 36/1/1 39/1/1
f 45/1/1 42/1/1 41/1/1
f 46/1/1 42/1/1 45/1/1
f 47/1/1 44/1/1 43/1/1
f 48/1/1 44/1/1 47/1/1
f 53/1/1 50/1/1 49/1/1
f 54/1/1 50/1/1 53/1/1
f 55/1/1 52/1/1 51/1/1
f 56/1/1 52/1/1 55/1/1
f 61/1/1 58/1/1 57/1/1
f 62/1/1 58/1/1 61/1/1
f 63/1/1 60/1/1 59/1/1
f 64/1/1 60/1/1 63/1/1
f 67/1/1 66/1/1 65/1/1
f 68/1/1 66/1/1 67/1/1
f 73/1/1 70/1/1 69/1/1
f 74/1/1 70/1/1 73/1/1
f 75/1/1 72/1/1 71/1/1
f 76/1/1 72/1/1 75/1/1
f 81/1/1 78/1/1 77/1/1
f 82/1/1 78/1/1 81/1/1
f 83/1/1 80/1/1 79/1/1
f 84/1/1 80/1/1 83/1/1
f 89/1/1 86/1/1 85/1/1
f 90/1/1 86/1/1 89/1/1
f 91/1/1 88/1/1 87/1/1
f 92/1/1 88/1/1 91/1/1
f 95/1/1 94/1/1 93/1/1
f 96/1/1 94/1/1 95/1/1
f 97/2/1 96/2/1 95/2/1
f 98/2/1 96/2/1 97/2/1
f 99/1/1 98/1/1 97/1/1
f 100/1/1 98/1/1 99/1/1
f 101/2/1 100/2/1 99/2/1
f 102/2/1 100/2/1 101/2/1
f 103/1/1 102/1/1 101/1/1
f 104/1/1 102/1/1 103/1/1
f 105/2/1 104/2/1 103/2/1
f 106/2/1 104/2/1 105/2/1
f 107/1/1 106/1/1 105/1/1
f 108/1/1 106/1/1 107/1/1
f 111/1/1 110/1/1 109/1/1
f 112/1/1 110/1/1 111/1/1
f 113/2/1 112/2/1 111/2/1
f 114/2/1 112/2/1 113/2/1
f 115/1/1 114/1/1 113/1/1
f 116/1/1 114/1/1 115/1/1
f 117/2/1 116/2/1 115/2/1
f 118/2/1 116/2/1 117/2/1
f 119/1/1 118/1/1 117/1/1
f 120/1/1 118/1/1 119/1/1
f 123/1/1 122/1/1 121/1/1
f 124/1/1 122/1/1 123/1/1
f 125/2/1 124/2/1 123/2/1
f 126/2/1 124/2/1 125/2/1
f 127/1/1 126/1/1 125/1/1
f 128/1/1 126/1/1 127/1/1
f 129/2/1 128/2/1 127/2/1
f 130/2/1 128/2/1 129/2/1
f 131/1/1 130/1/1 129/1/1
f 132/1/1 130/1/1 131/1/1
f 135/1/1 134/1/1 133/1/1
f 136/1/1 134/1/1 135/1/1
f 137/2/1 136/2/1 135/2/1
f 138/2/1 136/2/1 137/2/1
f 139/1/1 138/1/1 137/1/1
f 140/1/1 138/1/1 139/1/1
f 141/2/1 140/2/1 139/2/1
f 142/2/1 140/2/1 141/2/1
f 143/1/1 142/1/1 141/1/1
f 144/1/1 142/1/1 143/1/1
f 147/1/1 146/1/1 145/1/1
f 148/1/1 146/1/1 147/1/1
f 149/2/1 148/2/1 147/2/1
f 150/2/1 148/2/1 149/2/1
f 151/1/1 150/1/1 149/1/1
f 152/1/1 150/1/1 151/1/1
f 153/2/1 152/2/1 151/2/1
f 154/2/1 152/2/1 153/2/1
f 155/1/1 154/1/1 153/1/1
f 156/1/1 154/1/1 155/1/1
f 159/1/1 158/1/1 157/1/1
f 160/1/1 158/1/1 159/1/1
f 161/2/1 160/2/1 159/2/1
f 162/2/1 160/2/1 161/2/1
f 163/1/1 162/1/1 161/1/1
f 164/1/1 162/1/1 163/1/1
f 165/2/1 164/2/1 163/2/1
f 166/2/1 164/2/1 165/2/1
f 167/1/1 166/1/1 165/1/1
f 168/1/1 166/1/1 167/1/1
f 171/1/1 170/1/1 169/1/1
f 172/1/1 170/1/1 171/1/1
f 173/2/1 172/2/1 171/2/1
f 174/2/1 172/2/1 173/2/1
f 175/1/1 174/1/1 173/1/1
f 176/1/1 174/1/1 175/1/1
f 177/2/1 176/2/1 175/2/1
f 178/2/1 176/2/1 177/2/1
f 179/1/1 178/1/1 177/1/1
f 180/1/1 178/1/1 179/1/1
f 183/1/1 182/1/1 181/1/1
f 184/1/1 182/1/1 183/1/1
f 185/2/1 184/2/1 183/2/1
f 186/2/1 184/2/1 185/2/1
f 187/1/1 186/1/1 185/1/1
f 188/1/1 186/1/1 187/1/1
f 189/2/1 188/2/1 187/2/1
f 190/2/1 188/2/1 189/2/1
f 191/1/1 190/1/1 189/1/1
f 192/1/1 190/1/1 191/1/1
f 195/1/1 194/1/1 193/1/1
f 196/1/1 194/1/1 195/1/1
f 197/2/1 196/2/1 195/2/1
f 198/2/1 196/2/1 197/2/1
f 199/1/1 198/1/1 197/1/1
f 200/1/1 198/1/1 199/1/1
f 201/2/1 200/2/1 199/2/1
f 202/2/1 200/2/1 201/2/1
f 203/1/1 202/1/1 201/1/1
f 204/1/1 202/1/1 203/1/1
f 207/1/1 206/1/1 205/1/1
f 208/1/1 206/1/1 207/1/1
f 209/2/1 208/2/1 207/2/1
f 210/2/1 208/2/1 209/2/1
f 211/1/1 210/1/1 209/1/1
f 212/1/1 210/1/1 211/1/1
f 213/1/1 211/1/1 209/1/1
f 213/2/1 212/2/1 211/2/1
f 214/2/1 212/2/1 213/2/1
f 215/1/1 213/1/1 209/1/1
f 215/1/1 214/1/1 213/1/1
f 216/1/1 214/1/1 215/1/1
f 219/1/1 218/1/1 217/1/1
f 220/1/1 218/1/1 219/1/1
f 221/2/1 220/2/1 219/2/1
f 222/2/1 220/2/1 221/2/1
f 223/1/1 222/1/1 221/1/1
f 224/1/1 222/1/1 223/1/1
f 225/1/2 226/1/2 227/1/2
f 227/1/2 226/1/2 228/1/2
f 227/2/2 228/2/2 229/2/2
f 229/2/2 228/2/2 230/2/2
f 229/1/2 230/1/2 231/1/2
f 231/1/2 230/1/2 232/1/2
f 233/1/2 234/1/2 235/1/2
f 235/1/2 234/1/2 236/1/2
f 235/2/2 236/2/2 237/2/2
f 237/2/2 236/2/2 238/2/2
f 237/1/2 238/1/2 239/1/2
f 239/1/2 238/1/2 240/1/2
f 241/1/2 242/1/2 243/1/2
f 243/1/2 242/1/2 244/1/2
f 243/2/2 244/2/2 245/2/2
f 245/2/2 244/2/2 246/2/2
f 245/1/2 246/1/2 247/1/2
f 247/1/2 246/1/2 248/1/2
f 249/1/2 250/1/2 251/1/2
f 251/1/2 250/1/2 252/1/2
f 251/2/2 252/2/2 253/2/2
f 253/2/2 252/2/2 254/2/2
f 253/1/2 254/1/2 255/1/2
f 255/1/2 254/1/2 256/1/2
f 257/1/2 258/1/2 259/1/2
f 259/1/2 258/1/2 260/1/2
f 259/2/2 260/2/2 261/2/2
f 261/2/2 260/2/2 262/2/2
f 261/1/2 262/1/2 263/1/2
f 263/1/2 262/1/2 264/1/2
f 265/1/2 266/1/2 267/1/2
f 265/1/2 267/1/2 268/1/2
f 265/1/2 268/1/2 269/1/2
f 269/1/2 268/1/2 270/1/2
f 269/2/2 270/2/2 271/2/2
f 271/2/2 270/2/2 272/2/2
f 271/1/2 272/1/2 273/1/2
f 273/1/2 272/1/2 274/1/2
f 275/1/2 276/1/2 277/1/2
f 277/1/2 276/1/2 278/1/2
f 277/2/2 278/2/2 279/2/2
f 279/2/2 278/2/2 280/2/2
f 279/1/2 280/1/2 281/1/2
f 281/1/2 280/1/2 282/1/2
f 281/2/2 282/2/2 283/2/2
f 283/2/2 282/2/2 284/2/2
f 283/1/2 284/1/2 285/1/2
f 283/1/2 285/1/2 286/1/2
f 283/1/2 286/1/2 287/1/2
f 287/1/2 286/1/2 288/1/2
f 289/1/2 290/1/2 291/1/2
f 291/1/2 290/1/2 292/1/2
f 291/2/2 292/2/2 293/2/2
f 293/2/2 292/2/2 294/2/2
f 293/1/2 294/1/2 295/1/2
f 295/1/2 294/1/2 296/1/2
f 295/2/2 296/2/2 297/2/2
f 297/2/2 296/2/2 298/2/2
f 297/1/2 298/1/2 299/1/2
f 299/1/2 298/1/2 300/1/2
f 299/2/2 300/2/2 301/2/2
f 301/2/2 300/2/2 302/2/2
f 301/1/2 302/1/2 303/1/2
f 303/1/2 302/1/2 304/1/2
f 305/1/2 306/1/2 307/1/2
f 307/1/2 306/1/2 308/1/2
f 307/2/2 308/2/2 309/2/2
f 309/2/2 308/2/2 310/2/2
f 309/1/2 310/1/2 311/1/2
f 311/1/2 310/1/2 312/1/2
f 311/2/2 312/2/2 313/2/2
f 313/2/2 312/2/2 314/2/2
f 313/1/2 314/1/2 315/1/2
f 315/1/2 314/1/2 316/1/2
f 315/2/2 316/2/2 317/2/2
f 317/2/2 316/2/2 318/2/2
f 317/1/2 318/1/2 319/1/2
f 319/1/2 318/1/2 320/1/2
f 321/1/2 322/1/2 323/1/2
f 323/1/2 322/1/2 324/1/2
f 323/2/2 324/2/2 325/2/2
f 325/2/2 324/2/2 326/2/2
f 325/1/2 326/1/2 327/1/2
f 327/1/2 326/1/2 328/1/2
f 327/2/2 328/2/2 329/2/2
f 329/2/2 328/2/2 330/2/2
f 329/1/2 330/1/2 331/1/2
f 331/1/2 330/1/2 332/1/2
f 331/2/2 332/2/2 333/2/2
f 333/2/2 332/2/2 334/2/2
f 333/1/2 334/1/2 335/1/2
f 335/1/2 334/1/2 336/1/2
f 337/1/2 338/1/2 339/1/2
f 339/1/2 338/1/2 340/1/2
f 339/2/2 340/2/2 341/2/2
f 341/2/2 340/2/2 342/2/2
f 341/1/2 342/1/2 343/1/2
f 343/1/2 342/1/2 344/1/2
f 343/2/2 344/2/2 345/2/2
f 345/2/2 344/2/2 346/2/2
f 345/1/2 346/1/2 347/1/2
f 347/1/2 346/1/2 348/1/2
f 347/2/2 348/2/2 349/2/2
f 349/2/2 348/2/2 350/2/2
f 349/1/2 350/1/2 351/1/2
f 351/1/2 350/1/2 352/1/2
f 353/1/2 354/1/2 357/1/2
f 357/1/2 354/1/2 358/1/2
f 355/1/2 356/1/2 359/1/2
f 359/1/2 356/1/2 360/1/2
f 361/1/2 362/1/2 365/1/2
f 365/1/2 362/1/2 366/1/2
f 363/1/2 364/1/2 367/1/2
f 367/1/2 364/1/2 368/1/2
f 369/1/2 370/1/2 373/1/2
f 373/1/2 370/1/2 374/1/2
f 371/1/2 372/1/2 375/1/2
f 375/1/2 372/1/2 376/1/2
f 377/1/2 378/1/2 379/1/2
f 379/1/2 378/1/2 380/1/2
f 381/1/2 382/1/2 385/1/2
f 385/1/2 382/1/2 386/1/2
f 383/1/2 384/1/2 387/1/2
f 387/1/2 384/1/2 388/1/2
f 389/1/2 390/1/2 393/1/2
f 393/1/2 390/1/2 394/1/2
f 391/1/2 392/1/2 395/1/2
f 395/1/2 392/1/2 396/1/2
f 397/1/2 398/1/2 401/1/2
f 401/1/2 398/1/2 402/1/2
f 399/1/2 400/1/2 403/1/2
f 403/1/2 400/1/2 404/1/2
f 405/1/2 406/1/2 409/1/2
f 409/1/2 406/1/2 410/1/2
f 407/1/2 408/1/2 411/1/2
f 411/1/2 408/1/2 412/1/2
f 413/1/2 414/1/2 417/1/2
f 417/1/2 414/1/2 418/1/2
f 415/1/2 416/1/2 419/1/2
f 419/1/2 416/1/2 420/1/2
f 421/1/2 422/1/2 425/1/2
f 425/1/2 422/1/2 426/1/2
f 423/1/2 424/1/2 427/1/2
f 427/1/2 424/1/2 428/1/2
f 429/1/2 430/1/2 433/1/2
f 433/1/2 430/1/2 434/1/2
f 431/1/2 432/1/2 435/1/2
f 435/1/2 432/1/2 436/1/2
f 437/1/2 438/1/2 439/1/2
f 439/1/2 438/1/2 440/1/2
f 441/1/2 442/1/2 443/1/2
f 443/1/2 442/1/2 444/1/2
f 447/1/3 446/1/3 445/1/3
f 448/1/3 446/1/3 447/1/3
f 451/1/3 450/1/3 449/1/3
f 452/1/3 450/1/3 451/1/3
f 455/1/3 454/1/3 453/1/3
f 456/1/3 454/1/3 455/1/3
f 459/1/3 458/1/3 457/1/3
f 460/1/3 458/1/3 459/1/3
f 463/1/3 462/1/3 461/1/3
f 464/1/3 462/1/3 463/1/3
f 467/1/3 466/1/3 465/1/3
f 468/1/3 466/1/3 467/1/3
f 471/1/3 470/1/3 469/1/3
f 472/1/3 470/1/3 471/1/3
f 475/1/3 474/1/3 473/1/3
f 476/1/3 474/1/3 475/1/3
f 479/1/3 478/1/3 477/1/3
f 480/1/3 478/1/3 479/1/3
f 483/1/3 482/1/3 481/1/3
f 484/1/3 482/1/3 483/1/3
f 487/1/3 486/1/3 485/1/3
f 488/1/3 486/1/3 487/1/3
f 491/1/3 490/1/3 489/1/3
f 492/1/3 490/1/3 491/1/3
f 495/1/3 494/1/3 493/1/3
f 496/1/3 494/1/3 495/1/3
f 499/1/3 498/1/3 497/1/3
f 500/1/3 498/1/3 499/1/3
f 503/1/3 502/1/3 501/1/3
f 504/1/3 502/1/3 503/1/3
f 507/1/3 506/1/3 505/1/3
f 508/1/3 506/1/3 507/1/3
f 511/1/3 510/1/3 509/1/3
f 512/1/3 510/1/3 511/1/3
f 515/1/3 514/1/3 513/1/3
f 516/1/3 514/1/3 515/1/3
f 519/1/3 518/1/3 517/1/3
f 520/1/3 518/1/3 519/1/3
f 523/1/3 522/1/3 521/1/3
f 524/1/3 522/1/3 523/1/3
f 527/1/3 526/1/3 525/1/3
f 528/1/3 526/1/3 527/1/3
f 531/1/3 530/1/3 529/1/3
f 532/1/3 530/1/3 531/1/3
f 533/1/3 531/1/3 529/1/3
f 534/1/3 531/1/3 533/1/3
f 535/2/3 532/2/3 531/2/3
f 535/1/3 531/1/3 534/1/3
f 536/1/3 530/1/3 532/1/3
f 536/2/3 532/2/3 535/2/3
f 537/1/3 530/1/3 536/1/3
f 543/1/3 539/1/3 538/1/3
f 543/1/3 540/1/3 539/1/3
f 543/2/3 541/2/3 540/2/3
f 544/1/3 542/1/3 541/1/3
f 544/2/3 541/2/3 543/2/3
f 545/1/3 543/1/3 538/1/3
f 545/1/3 544/1/3 543/1/3
f 546/1/3 542/1/3 544/1/3
f 546/1/3 544/1/3 545/1/3
f 551/1/3 548/1/3 547/1/3
f 552/2/3 549/2/3 548/2/3
f 552/1/3 548/1/3 551/1/3
f 553/1/3 550/1/3 549/1/3
f 553/2/3 549/2/3 552/2/3
f 554/1/3 550/1/3 553/1/3
f 559/1/3 556/1/3 555/1/3
f 560/2/3 557/2/3 556/2/3
f 560/1/3 556/1/3 559/1/3
f 561/1/3 558/1/3 557/1/3
f 561/2/3 557/2/3 560/2/3
f 562/1/3 558/1/3 561/1/3
f 567/1/3 564/1/3 563/1/3
f 568/2/3 565/2/3 564/2/3
f 568/1/3 564/1/3 567/1/3
f 569/1/3 566/1/3 565/1/3
f 569/2/3 565/2/3 568/2/3
f 570/1/3 566/1/3 569/1/3
f 577/1/3 572/1/3 571/1/3
f 578/2/3 573/2/3 572/2/3
f 578/1/3 572/1/3 577/1/3
f 579/1/3 574/1/3 573/1/3
f 579/2/3 573/2/3 578/2/3
f 580/2/3 575/2/3 574/2/3
f 580/1/3 574/1/3 579/1/3
f 581/1/3 576/1/3 575/1/3
f 581/2/3 575/2/3 580/2/3
f 582/1/3 576/1/3 581/1/3
f 587/1/3 584/1/3 583/1/3
f 588/2/3 585/2/3 584/2/3
f 588/1/3 584/1/3 587/1/3
f 589/1/3 586/1/3 585/1/3
f 589/2/3 585/2/3 588/2/3
f 590/1/3 586/1/3 589/1/3
f 597/1/3 592/1/3 591/1/3
f 598/2/3 593/2/3 592/2/3
f 598/1/3 592/1/3 597/1/3
f 599/1/3 594/1/3 593/1/3
f 599/2/3 593/2/3 598/2/3
f 600/2/3 595/2/3 594/2/3
f 600/1/3 594/1/3 599/1/3
f 601/1/3 596/1/3 595/1/3
f 601/2/3 595/2/3 600/2/3
f 602/1/3 596/1/3 601/1/3
f 607/1/3 604/1/3 603/1/3
f 608/2/3 605/2/3 604/2/3
f 608/1/3 604/1/3 607/1/3
f 609/1/3 606/1/3 605/1/3
f 609/2/3 605/2/3 608/2/3
f 610/1/3 606/1/3 609/1/3
f 617/1/3 612/1/3 611/1/3
f 618/2/3 613/2/3 612/2/3
f 618/1/3 612/1/3 617/1/3
f 619/1/3 614/1/3 613/1/3
f 619/2/3 613/2/3 618/2/3
f 620/2/3 615/2/3 614/2/3
f 620/1/3 614/1/3 619/1/3
f 621/1/3 616/1/3 615/1/3
f 621/2/3 615/2/3 620/2/3
f 622/1/3 616/1/3 621/1/3
f 627/1/3 624/1/3 623/1/3
f 628/2/3 625/2/3 624/2/3
f 628/1/3 624/1/3 627/1/3
f 629/1/3 626/1/3 625/1/3
f 629/2/3 625/2/3 628/2/3
f 630/1/3 626/1/3 629/1/3
f 637/1/3 632/1/3 631/1/3
f 638/2/3 633/2/3 632/2/3
f 638/1/3 632/1/3 637/1/3
f 639/1/3 634/1/3 633/1/3
f 639/2/3 633/2/3 638/2/3
f 640/2/3 635/2/3 634/2/3
f 640/1/3 634/1/3 639/1/3
f 641/1/3 636/1/3 635/1/3
f 641/2/3 635/2/3 640/2/3
f 642/1/3 636/1/3 641/1/3
f 649/1/3 644/1/3 643/1/3
f 650/2/3 645/2/3 644/2/3
f 650/1/3 644/1/3 649/1/3
f 651/1/3 646/1/3 645/1/3
f 651/2/3 645/2/3 650/2/3
f 652/2/3 647/2/3 646/2/3
f 652/1/3 646/1/3 651/1/3
f 653/1/3 648/1/3 647/1/3
f 653/2/3 647/2/3 652/2/3
f 654/1/3 648/1/3 653/1/3
f 661/1/3 656/1/3 655/1/3
f 662/2/3 657/2/3 656/2/3
f 662/1/3 656/1/3 661/1/3
f 663/1/3 658/1/3 657/1/3
f 663/2/3 657/2/3 662/2/3
f 664/2/3 659/2/3 658/2/3
f 664/1/3 658/1/3 663/1/3
f 665/1/3 660/1/3 659/1/3
f 665/2/3 659/2/3 664/2/3
f 666/1/3 660/1/3 665/1/3
f 675/1/3 668/1/3 667/1/3
f 676/2/3 669/2/3 668/2/3
f 676/1/3 668/1/3 675/1/3
f 677/1/3 670/1/3 669/1/3
f 677/2/3 669/2/3 676/2/3
f 678/2/3 671/2/3 670/2/3
f 678/1/3 670/1/3 677/1/3
f 679/1/3 672/1/3 671/1/3
f 679/2/3 671/2/3 678/2/3
f 680/2/3 673/2/3 672/2/3
f 680/1/3 672/1/3 679/1/3
f 681/1/3 674/1/3 673/1/3
f 681/2/3 673/2/3 680/2/3
f 682/1/3 674/1/3 681/1/3
f 689/1/3 684/1/3 683/1/3
f 690/2/3 685/2/3 684/2/3
f 690/1/3 684/1/3 689/1/3
f 691/1/3 686/1/3 685/1/3
f 691/2/3 685/2/3 690/2/3
f 692/2/3 687/2/3 686/2/3
f 692/1/3 686/1/3 691/1/3
f 693/1/3 688/1/3 687/1/3
f 693/2/3 687/2/3 692/2/3
f 694/1/3 688/1/3 693/1/3
f 703/1/3 696/1/3 695/1/3
f 704/2/3 697/2/3 696/2/3
f 704/1/3 696/1/3 703/1/3
f 705/1/3 698/1/3 697/1/3
f 705/2/3 697/2/3 704/2/3
f 706/2/3 699/2/3 698/2/3
f 706/1/3 698/1/3 705/1/3
f 707/1/3 700/1/3 699/1/3
f 707/2/3 699/2/3 706/2/3
f 708/2/3 701/2/3 700/2/3
f 708/1/3 700/1/3 707/1/3
f 709/1/3 702/1/3 701/1/3
f 709/2/3 701/2/3 708/2/3
f 710/1/3 702/1/3 709/1/3
f 717/1/3 712/1/3 711/1/3
f 718/2/3 713/2/3 712/2/3
f 718/1/3 712/1/3 717/1/3
f 719/1/3 714/1/3 713/1/3
f 719/2/3 713/2/3 718/2/3
f 720/2/3 715/2/3 714/2/3
f 720/1/3 714/1/3 719/1/3
f 721/1/3 716/1/3 715/1/3
f 721/2/3 715/2/3 720/2/3
f 722/1/3 716/1/3 721/1/3
f 731/1/3 724/1/3 723/1/3
f 732/2/3 725/2/3 724/2/3
f 732/1/3 724/1/3 731/1/3
f 733/1/3 726/1/3 725/1/3
f 733/2/3 725/2/3 732/2/3
f 734/2/3 727/2/3 726/2/3
f 734/1/3 726/1/3 733/1/3
f 735/1/3 728/1/3 727/1/3
f 735/2/3 727/2/3 734/2/3
f 736/2/3 729/2/3 728/2/3
f 736/1/3 728/1/3 735/1/3
f 737/1/3 730/1/3 729/1/3
f 737/2/3 729/2/3 736/2/3
f 738/1/3 730/1/3 737/1/3
f 745/1/3 740/1/3 739/1/3
f 746/2/3 741/2/3 740/2/3
f 746/1/3 740/1/3 745/1/3
f 747/1/3 742/1/3 741/1/3
f 747/2/3 741/2/3 746/2/3
f 748/2/3 743/2/3 742/2/3
f 748/1/3 742/1/3 747/1/3
f 749/1/3 744/1/3 743/1/3
f 749/2/3 743/2/3 748/2/3
f 750/1/3 744/1/3 749/1/3
f 759/1/3 752/1/3 751/1/3
f 760/2/3 753/2/3 752/2/3
f 760/1/3 752/1/3 759/1/3
f 761/1/3 754/1/3 753/1/3
f 761/2/3 753/2/3 760/2/3
f 762/2/3 755/2/3 754/2/3
f 762/1/3 754/1/3 761/1/3
f 763/1/3 756/1/3 755/1/3
f 763/2/3 755/2/3 762/2/3
f 764/2/3 757/2/3 756/2/3
f 764/1/3 756/1/3 763/1/3
f 765/1/3 758/1/3 757/1/3
f 765/2/3 757/2/3 764/2/3
f 766/1/3 758/1/3 765/1/3
f 775/1/3 770/1/3 769/1/3
f 775/2/3 771/2/3 770/2/3
f 776/1/3 772/1/3 771/1/3
f 776/2/3 771/2/3 775/2/3
f 777/1/3 768/1/3 767/1/3
f 778/2/3 769/2/3 768/2/3
f 778/1/3 768/1/3 777/1/3
f 779/1/3 775/1/3 769/1/3
f 779/2/3 769/2/3 778/2/3
f 779/1/3 776/1/3 775/1/3
f 780/1/3 772/1/3 776/1/3
f 780/1/3 776/1/3 779/1/3
f 780/2/3 773/2/3 772/2/3
f 781/1/3 774/1/3 773/1/3
f 781/2/3 773/2/3 780/2/3
f 782/1/3 774/1/3 781/1/3
f 791/1/3 784/1/3 783/1/3
f 792/2/3 785/2/3 784/2/3
f 792/1/3 784/1/3 791/1/3
f 793/1/3 786/1/3 785/1/3
f 793/2/3 785/2/3 792/2/3
f 794/2/3 787/2/3 786/2/3
f 794/1/3 786/1/3 793/1/3
f 795/1/3 788/1/3 787/1/3
f 795/2/3 787/2/3 794/2/3
f 796/2/3 789/2/3 788/2/3
f 796/1/3 788/1/3 795/1/3
f 797/1/3 790/1/3 789/1/3
f 797/2/3 789/2/3 796/2/3
f 798/1/3 790/1/3 797/1/3
f 799/1/4 800/1/4 801/1/4
f 801/1/4 800/1/4 802/1/4
f 803/1/4 804/1/4 805/1/4
f 805/1/4 804/1/4 806/1/4
f 807/1/4 808/1/4 809/1/4
f 809/1/4 808/1/4 810/1/4
f 811/1/4 812/1/4 813/1/4
f 813/1/4 812/1/4 814/1/4
f 815/1/4 816/1/4 817/1/4
f 817/1/4 816/1/4 818/1/4
f 819/1/4 820/1/4 821/1/4
f 821/1/4 820/1/4 822/1/4
f 823/1/4 824/1/4 825/1/4
f 825/1/4 824/1/4 826/1/4
f 827/1/4 828/1/4 829/1/4
f 829/1/4 828/1/4 830/1/4
f 831/1/4 832/1/4 833/1/4
f 833/1/4 832/1/4 834/1/4
f 835/1/4 836/1/4 837/1/4
f 837/1/4 836/1/4 838/1/4
f 839/1/4 840/1/4 841/1/4
f 841/1/4 840/1/4 842/1/4
f 843/1/4 844/1/4 845/1/4
f 845/1/4 844/1/4 846/1/4
f 847/1/4 848/1/4 849/1/4
f 849/1/4 848/1/4 850/1/4
f 851/1/4 852/1/4 853/1/4
f 853/1/4 852/1/4 854/1/4
f 855/1/4 856/1/4 857/1/4
f 857/1/4 856/1/4 858/1/4
f 859/1/4 860/1/4 861/1/4
f 861/1/4 860/1/4 862/1/4
f 863/1/4 864/1/4 865/1/4
f 865/1/4 864/1/4 866/1/4
f 867/1/4 868/1/4 869/1/4
f 869/1/4 868/1/4 870/1/4
f 871/1/4 872/1/4 873/1/4
f 873/1/4 872/1/4 874/1/4
f 875/1/4 876/1/4 877/1/4
f 877/1/4 876/1/4 878/1/4
f 879/1/4 880/1/4 881/1/4
f 881/1/4 880/1/4 882/1/4
f 883/1/4 884/1/4 885/1/4
f 885/1/4 884/1/4 886/1/4
f 887/1/4 888/1/4 889/1/4
f 889/1/4 888/1/4 890/1/4
f 894/1/5 892/1/5 891/1/5
f 895/1/5 892/1/5 894/1/5
f 898/1/5 894/1/5 893/1/5
f 898/1/5 896/1/5 895/1/5
f 898/1/5 895/1/5 894/1/5
f 899/1/5 896/1/5 898/1/5
f 902/1/5 898/1/5 897/1/5
f 902/1/5 900/1/5 899/1/5
f 902/1/5 899/1/5 898/1/5
f 903/1/5 900/1/5 902/1/5
f 906/1/5 902/1/5 901/1/5
f 906/1/5 904/1/5 903/1/5
f 906/1/5 903/1/5 902/1/5
f 907/1/5 904/1/5 906/1/5
f 910/1/5 906/1/5 905/1/5
f 910/1/5 908/1/5 907/1/5
f 910/1/5 907/1/5 906/1/5
f 911/1/5 908/1/5 910/1/5
f 914/1/5 910/1/5 909/1/5
f 914/1/5 912/1/5 911/1/5
f 914/1/5 911/1/5 910/1/5
f 915/1/5 912/1/5 914/1/5
f 918/1/5 914/1/5 913/1/5
f 918/1/5 916/1/5 915/1/5
f 918/1/5 915/1/5 914/1/5
f 919/1/5 916/1/5 918/1/5
f 922/1/5 918/1/5 917/1/5
f 922/1/5 920/1/5 919/1/5
f 922/1/5 919/1/5 918/1/5
f 923/1/5 920/1/5 922/1/5
f 926/1/5 922/1/5 921/1/5
f 926/1/5 924/1/5 923/1/5
f 926/1/5 923/1/5 922/1/5
f 927/1/5 924/1/5 926/1/5
f 930/1/5 926/1/5 925/1/5
f 930/1/5 928/1/5 927/1/5
f 930/1/5 927/1/5 926/1/5
f 931/1/5 928/1/5 930/1/5
f 934/1/5 930/1/5 929/1/5
f 934/1/5 932/1/5 931/1/5
f 934/1/5 931/1/5 930/1/5
f 935/1/5 932/1/5 934/1/5
f 937/1/5 934/1/5 933/1/5
f 937/1/5 936/1/5 935/1/5
f 937/1/5 935/1/5 934/1/5
f 938/1/5 936/1/5 937/1/5
f 939/1/5 936/1/5 938/1/5
f 940/1/5 936/1/5 939/1/5
f 941/1/5 939/1/5 938/1/5
f 942/1/5 939/1/5 941/1/5
f 943/1/5 939/1/5 942/1/5
f 944/1/5 939/1/5 943/1/5
f 945/1/5 943/1/5 942/1/5
f 946/1/5 943/1/5 945/1/5
f 947/1/5 943/1/5 946/1/5
f 948/1/5 943/1/5 947/1/5
f 949/1/5 947/1/5 946/1/5
f 950/1/5 947/1/5 949/1/5
f 951/1/5 947/1/5 950/1/5
f 952/1/5 947/1/5 951/1/5
f 953/1/5 951/1/5 950/1/5
f 954/1/5 951/1/5 953/1/5
f 955/1/5 951/1/5 954/1/5
f 956/1/5 951/1/5 955/1/5
f 957/1/5 955/1/5 954/1/5
f 958/1/5 955/1/5 957/1/5
f 959/1/5 955/1/5 958/1/5
f 960/1/5 955/1/5 959/1/5
f 961/1/5 959/1/5 958/1/5
f 962/1/5 959/1/5 961/1/5
f 963/1/5 959/1/5 962/1/5
f 964/1/5 959/1/5 963/1/5
f 965/1/5 963/1/5 962/1/5
f 966/1/5 963/1/5 965/1/5
f 967/1/5 963/1/5 966/1/5
f 968/1/5 963/1/5 967/1/5
f 969/1/5 967/1/5 966/1/5
f 970/1/5 967/1/5 969/1/5
f 971/1/5 967/1/5 970/1/5
f 972/1/5 967/1/5 971/1/5
f 973/1/5 971/1/5 970/1/5
f 974/1/5 971/1/5 973/1/5
f 975/1/5 971/1/5 974/1/5
f 976/1/5 971/1/5 975/1/5
f 977/1/5 975/1/5 974/1/5
f 978/1/5 975/1/5 977/1/5
f 979/1/5 975/1/5 978/1/5
f 980/1/5 975/1/5 979/1/5
f 981/1/5 979/1/5 978/1/5
f 982/1/5 979/1/5 981/1/5
f 983/1/6 984/1/6 986/1/6
f 986/1/6 984/1/6 987/1/6
f 985/1/6 986/1/6 990/1/6
f 987/1/6 988/1/6 990/1/6
f 986/1/6 987/1/6 990/1/6
f 990/1/6 988/1/6 991/1/6
f 989/1/6 990/1/6 994/1/6
f 991/1/6 992/1/6 994/1/6
f 990/1/6 991/1/6 994/1/6
f 994/1/6 992/1/6 995/1/6
f 993/1/6 994/1/6 998/1/6
f 995/1/6 996/1/6 998/1/6
f 994/1/6 995/1/6 998/1/6
f 998/1/6 996/1/6 999/1/6
f 997/1/6 998/1/6 1002/1/6
f 999/1/6 1000/1/6 1002/1/6
f 998/1/6 999/1/6 1002/1/6
f 1002/1/6 1000/1/6 1003/1/6
f 1001/1/6 1002/1/6 1006/1/6
f 1003/1/6 1004/1/6 1006/1/6
f 1002/1/6 1003/1/6 1006/1/6
f 1006/1/6 1004/1/6 1007/1/6
f 1005/1/6 1006/1/6 1010/1/6
f 1007/1/6 1008/1/6 1010/1/6
f 1006/1/6 1007/1/6 1010/1/6
f 1010/1/6 1008/1/6 1011/1/6
f 1009/1/6 1010/1/6 1014/1/6
f 1011/1/6 1012/1/6 1014/1/6
f 1010/1/6 1011/1/6 1014/1/6
f 1014/1/6 1012/1/6 1015/1/6
f 1013/1/6 1014/1/6 1018/1/6
f 1015/1/6 1016/1/6 1018/1/6
f 1014/1/6 1015/1/6 1018/1/6
f 1018/1/6 1016/1/6 1019/1/6
f 1017/1/6 1018/1/6 1022/1/6
f 1019/1/6 1020/1/6 1022/1/6
f 1018/1/6 1019/1/6 1022/1/6
f 1022/1/6 1020/1/6 1023/1/6
f 1021/1/6 1022/1/6 1025/1/6
f 1023/1/6 1024/1/6 1025/1/6
f 1022/1/6 1023/1/6 1025/1/6
f 1025/1/6 1024/1/6 1026/1/6
f 1025/1/6 1026/1/6 1027/1/6
f 1027/1/6 1026/1/6 1028/1/6
f 1028/1/6 1026/1/6 1029/1/6
f 1029/1/6 1026/1/6 1030/1/6
f 1028/1/6 1029/1/6 1031/1/6
f 1031/1/6 1029/1/6 1032/1/6
f 1032/1/6 1029/1/6 1033/1/6
f 1033/1/6 1029/1/6 1034/1/6
f 1032/1/6 1033/1/6 1035/1/6
f 1035/1/6 1033/1/6 1036/1/6
f 1036/1/6 1033/1/6 1037/1/6
f 1037/1/6 1033/1/6 1038/1/6
f 1036/1/6 1037/1/6 1039/1/6
f 1039/1/6 1037/1/6 1040/1/6
f 1040/1/6 1037/1/6 1041/1/6
f 1041/1/6 1037/1/6 1042/1/6
f 1040/1/6 1041/1/6 1043/1/6
f 1043/1/6 1041/1/6 1044/1/6
f 1044/1/6 1041/1/6 1045/1/6
f 1045/1/6 1041/1/6 1046/1/6
f 1044/1/6 1045/1/6 1047/1/6
f 1047/1/6 1045/1/6 1048/1/6
f 1048/1/6 1045/1/6 1049/1/6
f 1049/1/6 1045/1/6 1050/1/6
f 1048/1/6 1049/1/6 1051/1/6
f 1051/1/6 1049/1/6 1052/1/6
f 1052/1/6 1049/1/6 1053/1/6
f 1053/1/6 1049/1/6 1054/1/6
f 1052/1/6 1053/1/6 1055/1/6
f 1055/1/6 1053/1/6 1056/1/6
f 1056/1/6 1053/1/6 1057/1/6
f 1057/1/6 1053/1/6 1058/1/6
f 1056/1/6 1057/1/6 1059/1/6
f 1059/1/6 1057/1/6 1060/1/6
f 1060/1/6 1057/1/6 1061/1/6
f 1061/1/6 1057/1/6 1062/1/6
f 1060/1/6 1061/1/6 1063/1/6
f 1063/1/6 1061/1/6 1064/1/6
f 1064/1/6 1061/1/6 1065/1/6
f 1065/1/6 1061/1/6 1066/1/6
f 1064/1/6 1065/1/6 1067/1/6
f 1067/1/6 1065/1/6 1068/1/6
f 1069/1/6 1070/1/6 1073/1/6
f 1073/1/6 1070/1/6 1074/1/6
f 1074/1/6 1070/1/6 1075/1/6
f 1071/1/6 1072/1/6 1078/1/6
f 1078/1/6 1072/1/6 1079/1/6
f 1079/1/6 1072/1/6 1080/1/6
f 1075/1/6 1076/1/6 1081/1/6
f 1074/1/6 1075/1/6 1081/1/6
f 1081/1/6 1076/1/6 1082/1/6
f 1082/1/6 1076/1/6 1083/1/6
f 1078/1/6 1079/1/6 1086/1/6
f 1077/1/6 1078/1/6 1086/1/6
f 1086/1/6 1079/1/6 1087/1/6
f 1087/1/6 1079/1/6 1088/1/6
f 1083/1/6 1084/1/6 1089/1/6
f 1082/1/6 1083/1/6 1089/1/6
f 1089/1/6 1084/1/6 1090/1/6
f 1090/1/6 1084/1/6 1091/1/6
f 1086/1/6 1087/1/6 1094/1/6
f 1085/1/6 1086/1/6 1094/1/6
f 1094/1/6 1087/1/6 1095/1/6
f 1095/1/6 1087/1/6 1096/1/6
f 1091/1/6 1092/1/6 1097/1/6
f 1090/1/6 1091/1/6 1097/1/6
f 1094/1/6 1095/1/6 1100/1/6
f 1093/1/6 1094/1/6 1100/1/6
f 1097/1/6 1098/1/6 1101/1/6
f 1090/1/6 1097/1/6 1101/1/6
f 1101/1/6 1098/1/6 1102/1/6
f 1102/1/6 1098/1/6 1103/1/6
f 1099/1/6 1100/1/6 1106/1/6
f 1100/1/6 1095/1/6 1107/1/6
f 1106/1/6 1100/1/6 1107/1/6
f 1107/1/6 1095/1/6 1108/1/6
f 1103/1/6 1104/1/6 1109/1/6
f 1102/1/6 1103/1/6 1109/1/6
f 1109/1/6 1104/1/6 1110/1/6
f 1110/1/6 1104/1/6 1111/1/6
f 1105/1/6 1106/1/6 1114/1/6
f 1106/1/6 1107/1/6 1114/1/6
f 1114/1/6 1107/1/6 1115/1/6
f 1115/1/6 1107/1/6 1116/1/6
f 1111/1/6 1112/1/6 1117/1/6
f 1110/1/6 1111/1/6 1117/1/6
f 1117/1/6 1112/1/6 1118/1/6
f 1118/1/6 1112/1/6 1119/1/6
f 1114/1/6 1115/1/6 1122/1/6
f 1113/1/6 1114/1/6 1122/1/6
f 1122/1/6 1115/1/6 1123/1/6
f 1123/1/6 1115/1/6 1124/1/6
f 1119/1/6 1120/1/6 1125/1/6
f 1118/1/6 1119/1/6 1125/1/6
f 1125/1/6 1120/1/6 1126/1/6
f 1126/1/6 1120/1/6 1127/1/6
f 1122/1/6 1123/1/6 1130/1/6
f 1121/1/6 1122/1/6 1130/1/6
f 1130/1/6 1123/1/6 1131/1/6
f 1131/1/6 1123/1/6 1132/1/6
f 1127/1/6 1128/1/6 1133/1/6
f 1126/1/6 1127/1/6 1133/1/6
f 1133/1/6 1128/1/6 1134/1/6
f 1134/1/6 1128/1/6 1135/1/6
f 1130/1/6 1131/1/6 1138/1/6
f 1129/1/6 1130/1/6 1138/1/6
f 1138/1/6 1131/1/6 1139/1/6
f 1139/1/6 1131/1/6 1140/1/6
f 1135/1/6 1136/1/6 1141/1/6
f 1134/1/6 1135/1/6 1141/1/6
f 1141/1/6 1136/1/6 1142/1/6
f 1142/1/6 1136/1/6 1143/1/6
f 1138/1/6 1139/1/6 1146/1/6
f 1137/1/6 1138/1/6 1146/1/6
f 1146/1/6 1139/1/6 1147/1/6
f 1147/1/6 1139/1/6 1148/1/6
f 1143/1/6 1144/1/6 1149/1/6
f 1142/1/6 1143/1/6 1149/1/6
f 1149/1/6 1144/1/6 1150/1/6
f 1150/1/6 1144/1/6 1151/1/6
f 1146/1/6 1147/1/6 1152/1/6
f 1145/1/6 1146/1/6 1152/1/6
f 1152/1/6 1147/1/6 1153/1/6
f 1153/1/6 1147/1/6 1154/1/6
f 1150/1/6 1151/1/6 1155/1/6
f 1152/1/6 1153/1/6 1155/1/6
f 1151/1/6 1152/1/6 1155/1/6
f 1155/1/6 1153/1/6 1156/1/6
f 1156/1/6 1153/1/6 1157/1/6
f 1157/1/6 1153/1/6 1158/1/6
f 1156/1/6 1157/1/6 1159/1/6
f 1159/1/6 1157/1/6 1160/1/6
